<?xml version="1.0" standalone="no"?><!DOCTYPE svg PUBLIC "-//W3C//DTD SVG 1.1//EN" "http://www.w3.org/Graphics/SVG/1.1/DTD/svg11.dtd"><svg t="1713020573889" class="icon" viewBox="0 0 1026 1024" version="1.1" xmlns="http://www.w3.org/2000/svg" p-id="15777" xmlns:xlink="http://www.w3.org/1999/xlink" width="200.390625" height="200"><path d="M505.448517 0.043084a511.978458 511.978458 0 1 0 518.441019 502.643647A511.978458 511.978458 0 0 0 505.448517 0.043084z m56.726926 170.180778a58.881113 58.881113 0 0 1 67.497861 67.497861 86.167482 86.167482 0 0 1-89.039732 80.422983c-49.546302 0-71.806235-25.132182-71.806235-67.497861A87.603607 87.603607 0 0 1 562.893505 170.223862z m-134.995722 660.617365c-35.903118 0-61.753362-21.541871-36.62118-116.326101L433.642282 546.488535c6.462561-27.286369 7.898686-38.057305 0-38.057305a270.709507 270.709507 0 0 0-84.013296 37.339242l-17.233496-28.722494a473.203091 473.203091 0 0 1 229.779953-114.889976c35.903118 0 40.929554 41.647617 23.696058 106.99129l-46.674053 176.643339c-7.898686 30.876681-5.026436 41.647617 0 41.647617a183.823963 183.823963 0 0 0 79.704921-40.211492l20.105746 27.28637A371.238237 371.238237 0 0 1 433.642282 830.841227z" fill="#00b42a" p-id="15778"></path></svg>