<?xml version="1.0" standalone="no"?><!DOCTYPE svg PUBLIC "-//W3C//DTD SVG 1.1//EN" "http://www.w3.org/Graphics/SVG/1.1/DTD/svg11.dtd"><svg t="1711208552849" class="icon" viewBox="0 0 1050 1024" version="1.1" xmlns="http://www.w3.org/2000/svg" p-id="1716" xmlns:xlink="http://www.w3.org/1999/xlink" width="205.078125" height="200"><path d="M1022.664982 688.413047c0 35.037994-28.648981 63.732582-63.715997 63.736728l-474.262949 0.157549c-35.04214 0.008292-63.74502-28.640689-63.74502-63.695268l-0.107796-344.119457c-0.012438-35.050432 28.640689-63.728436 63.691122-63.736728l474.287824-0.161695c35.033848-0.012438 63.720144 28.653127 63.732582 63.68283l0.120234 344.136041z" fill="#A8EBFF" p-id="1717"></path><path d="M420.849804 381.889677h601.71982v100.793833H420.849804zM488.628899 629.394487h136.565672v36.849804h-136.565672z" fill="#6E6E96" p-id="1718"></path><path d="M837.350436 562.863343h109.546076v86.075471h-109.546076z" fill="#FF7F7F" p-id="1719"></path><path d="M837.350436 581.288245h109.546076a18.424902 18.424902 0 0 1-18.420756-18.424902v86.075471a18.424902 18.424902 0 0 1 18.420756-18.420756h-109.546076a18.424902 18.424902 0 0 1 18.420756 18.420756V562.863343a18.424902 18.424902 0 0 1-18.420756 18.424902z m0 86.071325h109.546076a18.424902 18.424902 0 0 0 18.424902-18.420756V562.863343a18.429048 18.429048 0 0 0-18.424902-18.41661h-109.546076a18.420756 18.420756 0 0 0-18.420756 18.41661v86.075471a18.41661 18.41661 0 0 0 18.420756 18.420756z" fill="#6E6E96" p-id="1720"></path><path d="M951.357626 709.060214l-455.547825 0.149257c-33.657371 0.008292-61.224241-27.521265-61.224241-61.182781l-0.091212-283.645645c0 0.095358-0.016584 0.207301-0.016584 0.306805l0.107796 330.54125c0 33.669809 27.566871 61.186927 61.224241 61.178635l455.547825-0.153403c33.669809-0.004146 61.186927-27.562725 61.186927-61.220095l-0.016584-46.87902c-0.169987 33.499822-27.604185 60.896706-61.170343 60.904997z" fill="#6E6E96" opacity=".15" p-id="1721"></path><path d="M491.576718 318.91167l455.543678-0.153402c33.661517-0.008292 61.224241 27.517119 61.224242 61.178635l0.091212 283.658083c0-0.107796 0.016584-0.219739 0.016584-0.315097l-0.107796-330.545396c0-33.669809-27.554433-61.174489-61.224242-61.166197l-455.543678 0.149257c-33.673955 0-61.191073 27.558579-61.191074 61.215949l0.016584 46.887312c0.169987-33.51226 27.616623-60.909144 61.17449-60.909144z" fill="#FFFFFF" opacity=".31" p-id="1722"></path><path d="M1004.244226 688.413047c0 24.983902-20.315486 45.311826-45.299387 45.315972l-474.267095 0.157549c-12.035889 0.008292-23.400123-4.734752-31.994817-13.325301-8.582256-8.586402-13.312862-19.934052-13.312863-31.949211l-0.111942-344.127749c-0.004146-12.027597 4.718168-23.395977 13.312862-31.990672a44.926246 44.926246 0 0 1 31.957504-13.321154l474.29197-0.161695c24.967318-0.008292 45.291096 20.298902 45.299388 45.274512-0.004146 0.004146 0.124381 344.136041 0.12438 344.127749z m36.717132-344.140187c-0.02073-45.295242-36.882972-82.12017-82.157484-82.09944l-474.287824 0.161695c-21.866097 0.004146-42.471804 8.569818-58.011078 24.117384-15.547566 15.555858-24.1008 36.174003-24.096654 58.044246l0.111942 344.123603c0 21.857805 8.565672 42.451074 24.113239 57.998639 15.555858 15.560004 36.178149 24.125676 58.060829 24.121531l474.267095-0.161695c45.282804-0.004146 82.136754-36.866388 82.136753-82.149192-0.012438-0.024876-0.136819-344.156771-0.136818-344.156771z" fill="#6E6E96" p-id="1723"></path><path d="M439.303728 482.687656h564.874162v17.065008H439.303728z" fill="#FFFFFF" opacity=".39" p-id="1724"></path><path d="M439.266414 381.889677h564.870016v19.594079H439.266414z" fill="#0A0A0A" opacity=".12" p-id="1725"></path><path d="M521.569009 473.690798l72.202895-72.202896h12.24319l-72.19875 72.202896z" fill="#F0F0FF" opacity=".11" p-id="1726"></path><path d="M586.997312 473.690798l72.194603-72.202896h63.910861l-72.202896 72.202896zM749.997992 473.690798l72.202896-72.202896h37.351472l-72.207042 72.202896z" fill="#F0F0FF" opacity=".2" p-id="1727"></path><path d="M837.955754 275.432384H138.646973c-58.873449 0-107.041881-48.176724-107.041881-107.046027V146.976322c0-58.865157 48.168432-107.037735 107.041881-107.037735h592.275192c107.033589 0 107.033589 107.046027 107.033589 107.046027v128.44777z" fill="#D8D8E6" p-id="1728"></path><path d="M837.955754 257.007482H138.646973c-48.864963 0-88.616979-39.752016-88.616979-88.621125V146.976322c0-48.864963 39.752016-88.612833 88.616979-88.612833h592.275192c36.837366 0 62.795582 14.581544 77.178117 43.334176 11.127911 22.24753 11.434716 45.058919 11.434716 45.282803v128.443624a18.424902 18.424902 0 0 1 18.420756-18.41661z m18.433194 18.424902v-128.443624c0-1.268681-0.169987-31.459981-15.319535-61.759077-14.535938-29.063583-45.436206-63.707706-110.13481-63.707706H138.646973C69.466524 21.517831 13.184336 77.795873 13.184336 146.976322v21.410035c0 69.184595 56.286334 125.470929 125.466783 125.470929h699.304635a18.441486 18.441486 0 0 0 18.433194-18.424902z" fill="#6E6E96" p-id="1729"></path><path d="M741.57743 40.481715a104.251611 104.251611 0 0 0-10.659411-0.547274H138.646973c-58.873449 0-107.041881 48.172578-107.041881 107.041881v842.607586l76.49817-90.980209 76.485732 90.980209 76.502316-90.980209 76.494023 90.980209 76.481586-90.980209 76.49817 90.980209 76.494024-90.980209 74.711236 88.857448V154.667185c1.766203-63.516989 26.33965-114.18547 99.807081-114.18547z" fill="#F0F0FF" p-id="1730"></path><path d="M112.564377 394.153597c0 39.681534 32.293331 71.966573 71.983156 71.966573 39.681534 0 71.970719-32.285039 71.970719-71.966573 0-39.689826-32.289185-71.979011-71.970719-71.979011-19.370194 0-35.133353-15.754867-35.133352-35.120915 0-19.370194 15.763159-35.133353 35.133352-35.133352 19.366048 0 35.120915 15.763159 35.120915 35.133352h36.849804c0-39.693972-32.289185-71.983157-71.970719-71.983156-39.689826 0-71.983157 32.289185-71.983156 71.983156 0 39.681534 32.293331 71.966573 71.983156 71.966573 19.366048 0 35.120915 15.763159 35.120915 35.133353 0 19.366048-15.754867 35.120915-35.120915 35.120915-19.370194 0-35.133353-15.754867-35.133352-35.120915H112.564377z" fill="#FF9900" p-id="1731"></path><path d="M166.122631 447.699414h36.849804v49.424675h-36.849804zM166.122631 189.551777h36.849804v43.947786h-36.849804z" fill="#FF9900" p-id="1732"></path><path d="M348.199138 189.825414h208.138374v36.849804H348.199138zM348.199138 290.171477h161.006446v36.849804H348.199138zM348.199138 390.098792h208.138374v36.85395H348.199138zM348.199138 496.120753h137.444628v36.845658H348.199138zM120.433518 602.159298h286.672238v36.849804H120.433518zM477.791209 602.159298h94.251417v36.849804h-94.251417zM120.433518 719.960095h145.301331v36.849804H120.433518z" fill="#6E6E96" opacity=".6" p-id="1733"></path><path d="M340.342435 719.960095h106.030253v36.849804H340.342435z" fill="#FF9F8A" p-id="1734"></path><path d="M50.029994 150.550189h573.307161l79.064555-112.100022H118.733651s-68.703657 5.534933-68.703657 112.100022z" fill="#FFFFFF" opacity=".7" p-id="1735"></path><path d="M743.4307 22.152172a124.102743 124.102743 0 0 0-12.516827-0.630195H138.646973C69.466524 21.517831 13.184336 77.795873 13.184336 146.980468v842.607586a18.41661 18.41661 0 1 0 32.521362 11.861757l76.498169-90.98021a18.424902 18.424902 0 0 1-28.205357 0l76.485732 90.98021a18.429048 18.429048 0 0 0 28.209503 0l76.49817-90.98021a18.424902 18.424902 0 0 1-28.201211 0l76.489878 90.971917a18.408318 18.408318 0 0 0 28.205357 0l76.485732-90.971917a18.41661 18.41661 0 0 1-28.201211 0l76.49817 90.971917a18.424902 18.424902 0 0 0 14.104751 6.575584c5.435429 0 10.605513-2.40469 14.09646-6.575584l76.489878-90.971917a18.408318 18.408318 0 0 1-28.19292 0l74.707091 88.853303a18.408318 18.408318 0 0 0 20.41499 5.452013 18.43734 18.43734 0 0 0 12.114664-17.317916V154.667185l-0.008292 0.514106c2.412982-86.295209 47.612866-96.282966 81.407054-96.282966a18.424902 18.424902 0 0 0 18.400026-17.492048 18.462216 18.462216 0 0 0-16.571632-19.254105z m-120.093545 132.515013V987.457001a18.420756 18.420756 0 1 1 32.529654-11.861756l-74.715382-88.857448a18.391734 18.391734 0 0 0-28.19292 0l-76.494023 90.976063a18.433194 18.433194 0 0 1 28.201211 0l-76.49817-90.976063a18.41661 18.41661 0 0 0-28.205357 0L323.47229 977.722152a18.420756 18.420756 0 0 1 28.205357 0l-76.489878-90.976063a18.408318 18.408318 0 0 0-28.201211 0L170.484242 977.722152a18.41661 18.41661 0 0 1 28.201211 0l-76.489878-90.976063a18.408318 18.408318 0 0 0-28.201211 0l-76.494024 90.976063a18.43734 18.43734 0 0 1 20.410845-5.452013 18.449778 18.449778 0 0 1 12.114663 17.317915V146.980468c0-48.864963 39.752016-88.616979 88.616979-88.616979h592.275192c2.910504 0 5.870761 0.153403 8.797849 0.44777a18.424902 18.424902 0 0 1 1.85327-36.754446c-73.857157 0-115.848023 46.908043-118.236129 132.096266l0.004146 0.514106z" fill="#6E6E96" p-id="1736"></path><path d="M660.178667 154.667185h177.785379s5.55981-114.18547-96.386616-114.18547c-101.958864 0-81.398763 74.823179-81.398763 114.18547z" fill="#6E6E96" opacity=".15" p-id="1737"></path><path d="M482.376705 911.792181l-76.49817-90.980209-76.485732 90.980209-76.49817-90.980209-76.49817 90.980209-76.485732-90.980209-76.494024 90.980209v65.515369l76.49817-90.984355 76.485732 90.984355 76.502316-90.984355 76.49817 90.984355 76.481586-90.984355 76.502316 90.984355 76.489877-90.984355 74.707091 88.857448v-65.511223l-74.707091-88.857448-76.498169 90.980209zM722.725488 27.658083h-81.805072c-4.585495 14.871765-6.845075 31.542902-7.346743 49.221521v65.511223c1.782788-63.516989 26.343796-114.189616 99.819518-114.189616a105.557607 105.557607 0 0 0-10.667703-0.543128z" fill="#6E6E96" opacity=".15" p-id="1738"></path><path d="M660.186959 154.667185h31.393645V709.134843h-31.393645z" fill="#6E6E96" opacity=".15" p-id="1739"></path></svg>