<?xml version="1.0" standalone="no"?><!DOCTYPE svg PUBLIC "-//W3C//DTD SVG 1.1//EN" "http://www.w3.org/Graphics/SVG/1.1/DTD/svg11.dtd"><svg t="1713016089982" class="icon" viewBox="0 0 1024 1024" version="1.1" xmlns="http://www.w3.org/2000/svg" p-id="32457" xmlns:xlink="http://www.w3.org/1999/xlink" width="200" height="200"><path d="M108.8 454.4c-25.6 0-44.8-12.8-44.8-44.8V108.8c0-32 12.8-44.8 44.8-44.8h307.2c25.6 0 38.4 19.2 38.4 44.8v307.2c0 25.6-19.2 38.4-38.4 38.4H108.8z m499.2 0c-25.6 0-38.4-19.2-38.4-44.8V108.8c0-25.6 12.8-44.8 38.4-44.8h307.2c32 0 44.8 12.8 44.8 44.8v307.2c0 25.6-19.2 38.4-44.8 38.4H608zM108.8 960c-32 0-44.8-12.8-44.8-44.8V608c0-25.6 19.2-38.4 44.8-38.4h307.2c25.6 0 38.4 19.2 38.4 38.4v307.2c0 25.6-19.2 44.8-38.4 44.8H108.8z m499.2 0c-25.6 0-38.4-19.2-38.4-44.8V608c0-25.6 19.2-38.4 38.4-38.4h307.2c25.6 0 44.8 19.2 44.8 38.4v307.2c0 25.6-19.2 44.8-44.8 44.8H608z" p-id="32458" fill="#e5e6eb"></path></svg>