<?xml version="1.0" standalone="no"?><!DOCTYPE svg PUBLIC "-//W3C//DTD SVG 1.1//EN" "http://www.w3.org/Graphics/SVG/1.1/DTD/svg11.dtd"><svg t="1712399022210" class="icon" viewBox="0 0 1024 1024" version="1.1" xmlns="http://www.w3.org/2000/svg" p-id="56012" xmlns:xlink="http://www.w3.org/1999/xlink" width="200" height="200"><path d="M870.4 1024H153.6c-84.992 0-153.6-68.608-153.6-153.6V153.6C0 68.608 68.608 0 153.6 0h716.8c84.992 0 153.6 68.608 153.6 153.6v716.8c0 84.992-68.608 153.6-153.6 153.6" fill="#EF7052" p-id="56013"></path><path d="M511.488 799.232c-36.864 0-71.68-7.168-103.936-21.504-32.768-14.336-61.44-33.792-86.016-57.856-24.064-24.064-43.52-52.736-57.856-85.504-13.824-32.256-20.992-67.584-20.992-104.96 0-20.992 2.56-41.984 7.68-62.464s12.288-39.936 21.504-58.368c9.216-18.432 20.48-35.84 34.304-51.712 13.824-15.872 29.184-30.72 46.08-43.52 4.096-3.072 8.192-4.608 12.8-4.608 1.024 0 2.56 0 3.584 0.512 6.144 1.024 10.752 3.584 14.848 8.704 3.584 5.12 5.12 9.728 4.096 15.872-1.024 6.144-3.584 10.752-8.704 14.848-29.184 20.992-51.712 48.128-67.584 79.36-15.872 31.232-23.552 65.536-23.552 100.864 0 30.72 6.144 60.416 17.408 87.552 11.776 27.136 27.648 51.2 48.128 71.68s44.544 36.352 71.68 48.128c27.136 11.776 56.832 17.92 87.552 17.92 30.72 0 60.416-6.144 87.552-17.92 27.136-11.776 51.2-28.16 71.68-48.128 19.968-19.968 36.352-44.032 48.128-71.68 11.776-27.136 17.92-56.832 17.92-87.552 0-36.352-8.704-71.168-25.088-103.424-16.896-32.256-40.448-59.392-71.168-80.384-5.12-3.584-8.192-8.192-9.216-14.336-1.024-6.144 0-11.776 3.584-16.896 3.072-4.608 7.68-7.168 13.824-8.192 1.536-0.512 3.072-0.512 4.608-0.512 4.608 0 8.704 1.536 12.8 4.096 17.92 12.8 33.792 27.136 47.616 43.52 13.824 16.384 26.112 33.792 36.352 52.736 9.728 18.944 17.408 38.912 23.04 59.904 5.12 20.992 7.68 42.496 7.68 64 0 36.864-7.168 72.192-21.504 104.96-14.336 32.768-33.792 61.44-57.856 85.504-24.064 24.064-52.736 43.52-85.504 57.856-32.768 14.336-68.096 21.504-105.472 21.504z m0-286.208c-6.144 0-10.752-2.048-15.36-6.144-4.608-4.608-6.144-9.216-6.144-15.36V246.784c0-6.144 2.048-11.264 6.656-15.872 4.608-4.608 9.216-6.656 15.36-6.656 6.656 0 11.264 2.048 15.872 6.656 4.608 4.608 6.656 9.728 6.656 15.872V491.52c0 6.144-2.048 10.752-6.144 15.36-5.12 4.096-10.24 6.144-16.896 6.144z" fill="#FFFFFF" p-id="56014"></path></svg>