<?xml version="1.0" standalone="no"?><!DOCTYPE svg PUBLIC "-//W3C//DTD SVG 1.1//EN" "http://www.w3.org/Graphics/SVG/1.1/DTD/svg11.dtd"><svg t="1712398314069" class="icon" viewBox="0 0 1024 1024" version="1.1" xmlns="http://www.w3.org/2000/svg" p-id="1658" xmlns:xlink="http://www.w3.org/1999/xlink" width="200" height="200"><path d="M312.07619 0h399.84762c109.714286 0 148.72381 12.190476 187.733333 31.695238 39.009524 21.942857 70.704762 53.638095 92.647619 92.647619S1024 204.8 1024 312.07619v399.84762c0 109.714286-12.190476 148.72381-31.695238 187.733333-21.942857 39.009524-53.638095 70.704762-92.647619 92.647619-39.009524 21.942857-78.019048 31.695238-187.733333 31.695238H312.07619c-109.714286 0-148.72381-12.190476-187.733333-31.695238s-70.704762-53.638095-92.647619-92.647619C12.190476 860.647619 0 819.2 0 711.92381V312.07619c0-109.714286 12.190476-148.72381 31.695238-187.733333s53.638095-70.704762 92.647619-92.647619S204.8 0 312.07619 0z" fill="#C71D23" p-id="1659"></path><path d="M755.809524 458.361905H482.742857c-12.190476 0-24.380952 9.752381-24.380952 24.380952v58.514286c0 12.190476 9.752381 24.380952 24.380952 24.380952h165.790476c12.190476 0 24.380952 9.752381 24.380953 24.380953v12.190476c0 39.009524-31.695238 70.704762-70.704762 70.704762h-226.742857c-12.190476 0-24.380952-9.752381-24.380953-24.380953v-226.742857c0-39.009524 31.695238-70.704762 70.704762-70.704762H755.809524c12.190476 0 24.380952-9.752381 24.380952-24.380952V268.190476c0-12.190476-9.752381-24.380952-24.380952-24.380952H421.790476c-97.52381 0-177.980952 80.457143-177.980952 177.980952V755.809524c0 12.190476 9.752381 24.380952 24.380952 24.380952h351.085714c87.771429 0 160.914286-73.142857 160.914286-160.914286v-136.533333c0-14.628571-9.752381-24.380952-24.380952-24.380952z" fill="#FFFFFF" p-id="1660"></path></svg>