<?xml version="1.0" standalone="no"?><!DOCTYPE svg PUBLIC "-//W3C//DTD SVG 1.1//EN" "http://www.w3.org/Graphics/SVG/1.1/DTD/svg11.dtd"><svg t="1712398621145" class="icon" viewBox="0 0 1024 1024" version="1.1" xmlns="http://www.w3.org/2000/svg" p-id="62205" xmlns:xlink="http://www.w3.org/1999/xlink" width="200" height="200"><path d="M0 0m282.482759 0l459.034482 0q282.482759 0 282.482759 282.482759l0 459.034482q0 282.482759-282.482759 282.482759l-459.034482 0q-282.482759 0-282.482759-282.482759l0-459.034482q0-282.482759 282.482759-282.482759Z" fill="#8B5AFF" p-id="62206"></path><path d="M557.267862 608.29131a51.694345 51.694345 0 1 0-77.470896 45.620966v60.345379a25.847172 25.847172 0 1 0 51.694344 0v-60.345379a52.18869 52.18869 0 0 0 25.776552-45.620966z m206.706759-105.931034v264.827586a78.81269 78.81269 0 0 1-77.682759 79.660138h-361.577931a78.81269 78.81269 0 0 1-77.682759-79.660138v-264.827586a78.81269 78.81269 0 0 1 77.682759-79.660138h361.754483a78.81269 78.81269 0 0 1 77.506207 79.660138z" fill="#FFFFFF" p-id="62207"></path><path d="M686.468414 396.429241h-77.682759v-28.848551c0-48.657655-13.34731-130.08331-103.353379-130.083311-93.431172 0-103.353379 90.888828-103.353379 130.083311v28.848551h-77.682759v-28.848551c0-127.470345 71.044414-209.743448 180.859586-209.743449s180.859586 82.273103 180.859586 209.743449v28.848551z" fill="#D4C2FF" p-id="62208"></path></svg>