<?xml version="1.0" standalone="no"?><!DOCTYPE svg PUBLIC "-//W3C//DTD SVG 1.1//EN" "http://www.w3.org/Graphics/SVG/1.1/DTD/svg11.dtd"><svg class="icon" width="200px" height="200.00px" viewBox="0 0 1024 1024" version="1.1" xmlns="http://www.w3.org/2000/svg"><path d="M0 0m349.090909 0l325.818182 0q349.090909 0 349.090909 349.090909l0 325.818182q0 349.090909-349.090909 349.090909l-325.818182 0q-349.090909 0-349.090909-349.090909l0-325.818182q0-349.090909 349.090909-349.090909Z" fill="#62A8FC" /><path d="M704.570182 266.554182l-90.216727 90.88 75.892363 77.533091 90.391273-91.054546c20.957091 51.688727 10.973091 113.384727-30.161455 155.403637-45.300364 46.277818-113.757091 53.480727-166.946909 22.830545l-38.458182 42.914909-28.066909 31.325091-183.970909 205.312a42.286545 42.286545 0 0 1-60.706909 0l-15.185454-15.511273a44.532364 44.532364 0 0 1 0-62.033454l209.559272-179.293091-139.182545-142.545455-43.938909-0.023272-50.850909-83.549091 40.96-41.902546 83.642182 52.282182 0.581818 43.985455 140.776727 144.384 40.96-35.048728c-40.029091-55.773091-35.863273-134.295273 13.498182-184.715636a137.402182 137.402182 0 0 1 151.424-31.173818zM651.636364 570.181818c64.267636 0 116.363636 52.096 116.363636 116.363637s-52.096 116.363636-116.363636 116.363636-116.363636-52.096-116.363637-116.363636 52.096-116.363636 116.363637-116.363637zM277.178182 746.007273c-8.378182 8.576-8.378182 22.458182 0 31.034182 8.378182 8.564364 21.969455 8.564364 30.370909 0 8.378182-8.564364 8.378182-22.458182 0-31.022546a21.154909 21.154909 0 0 0-30.370909 0z m364.765091-122.496a14.545455 14.545455 0 0 0-14.475637 13.067636l-0.069818 1.477818v74.053818l0.058182 1.396364a14.545455 14.545455 0 0 0 12.986182 13.067636l1.501091 0.081455h61.707636l1.396364-0.069818a14.545455 14.545455 0 0 0 13.067636-12.986182l0.081455-1.489455-0.069819-1.396363a14.545455 14.545455 0 0 0-12.986181-13.079273l-1.489455-0.069818h-47.173818v-59.508364l-0.058182-1.396363a14.545455 14.545455 0 0 0-14.475636-13.149091z" fill="#FFFFFF" /></svg>