<?xml version="1.0" standalone="no"?><!DOCTYPE svg PUBLIC "-//W3C//DTD SVG 1.1//EN" "http://www.w3.org/Graphics/SVG/1.1/DTD/svg11.dtd"><svg t="1714214996917" class="icon" viewBox="0 0 1024 1024" version="1.1" xmlns="http://www.w3.org/2000/svg" p-id="848" xmlns:xlink="http://www.w3.org/1999/xlink" width="200" height="200"><path d="M909 466.8a388 388 0 0 1 2.62 45.2c0 213-172.64 385.61-385.6 385.61a384 384 0 0 1-241.85-85.26c110.61-22.28 231.57-67.67 350.51-135.56l5.85-3.36 10-5.82c100.74-59.3 187.91-128 257.34-199.64zM951 220.64c-26.75-47.29-108.91-56.8-217.31-33.55A383.7 383.7 0 0 0 526 126.39C313 126.39 140.37 299 140.37 512q0 9.4 0.44 18.81C75.88 605.25 48.08 673.46 73 717.43c49.18 86.92 285.61 46.17 528.09-91S1000.22 307.56 951 220.64zM118.54 689.27c-6.61-11.69 2.46-42.83 32-85l0.7-1a383.22 383.22 0 0 0 41.64 103.13c-42.47 1.11-68.4-6.63-74.34-17.13z m533.19-319.54A69.75 69.75 0 1 1 721.48 300a69.74 69.74 0 0 1-69.75 69.73z m217.18-34.23a386.83 386.83 0 0 0-79.51-105.1l1.44-0.19c66.36-8.61 107 0.32 114.67 13.82 6.94 12.28-3.42 45.97-36.6 91.47z" fill="#8D92F8" p-id="849"></path><path d="M955.81 287a409.18 409.18 0 0 0-48.36-30.91c-1.12 16.69-13.13 44.62-38.54 79.43A386.83 386.83 0 0 0 789.4 230.4l1.44-0.19a377 377 0 0 1 48.63-3.39 400.28 400.28 0 0 0-123.85-19.54c-226.72 0-410.51 188.83-410.51 421.77a433 433 0 0 0 15.39 114.77c84.4-21.8 182-61.63 280.55-117.4C792.38 518.17 930.3 382.22 955.81 287z m-304.08-56.77A69.75 69.75 0 1 1 582 300a69.75 69.75 0 0 1 69.73-69.77zM907.82 468c-69.43 71.62-156.6 140.34-257.34 199.64l-10 5.82-5.85 3.36c-99.21 56.6-199.82 97.57-294.63 122.53a424.43 424.43 0 0 0 37.24 68.49A384.47 384.47 0 0 0 526 897.61c213 0 385.6-172.65 385.6-385.61a388 388 0 0 0-2.6-45.2z" fill="#8486F8" p-id="850"></path><path d="M911.58 512a388 388 0 0 0-2.58-45.2l-1.18 1.2c-69.43 71.62-156.6 140.34-257.34 199.64l-10 5.82-5.85 3.36a1305.32 1305.32 0 0 1-174.76 83.48 390.72 390.72 0 0 0 37.84 136.3q14 1 28.26 1c212.97 0.01 385.61-172.6 385.61-385.6zM871.58 331.78q-1.3 1.85-2.67 3.72c-0.68-1.32-1.38-2.62-2.08-3.93q-7.51-0.29-15.11-0.28c-207.71 0-377.82 161-392.41 365a1353 1353 0 0 0 141.74-69.83c158.26-89.54 280-198 331.76-286.76a394 394 0 0 0-61.23-7.92z" fill="#757BF2" p-id="851"></path><path d="M907.82 468c-66.59 68.69-149.5 134.7-245.05 192.3a338.52 338.52 0 0 0-9.33 215.7c150.33-52.59 258.14-195.7 258.14-364a388 388 0 0 0-2.58-45.2z" fill="#6D6DF2" p-id="852"></path><path d="M438.53 206.83c7.55 11.35-32.19 25.35-74.12 53.29S294.25 319.34 286.7 308s15.62-50.21 57.55-78.14 86.75-34.37 94.28-23.03z" fill="#FFFFFF" p-id="853"></path></svg>