<?xml version="1.0" standalone="no"?><!DOCTYPE svg PUBLIC "-//W3C//DTD SVG 1.1//EN" "http://www.w3.org/Graphics/SVG/1.1/DTD/svg11.dtd"><svg t="1712398376704" class="icon" viewBox="0 0 1024 1024" version="1.1" xmlns="http://www.w3.org/2000/svg" p-id="9740" xmlns:xlink="http://www.w3.org/1999/xlink" width="200" height="200"><path d="M0 0m372.363636 0l279.272728 0q372.363636 0 372.363636 372.363636l0 279.272728q0 372.363636-372.363636 372.363636l-279.272728 0q-372.363636 0-372.363636-372.363636l0-279.272728q0-372.363636 372.363636-372.363636Z" fill="#52B852" p-id="9741"></path><path d="M545.454545 488.727273c104.971636 13.218909 189.288727 86.074182 220.811637 181.864727 2.734545 8.308364 5.154909 18.862545 7.261091 31.674182A46.545455 46.545455 0 0 1 727.598545 756.363636H296.192a46.545455 46.545455 0 0 1-45.940364-54.039272c1.780364-10.914909 3.805091-20.014545 6.074182-27.322182C286.696727 577.047273 371.968 502.155636 478.545455 488.727273L512 555.636364zM512 555.636364l-33.454545 100.363636L512 689.454545l33.454545-33.454545L512 555.636364z m-66.909091-316.625455A133.818182 133.818182 0 0 1 645.818182 354.909091C645.818182 428.811636 585.890909 488.727273 512 488.727273s-133.818182-59.915636-133.818182-133.818182a133.818182 133.818182 0 0 1 66.909091-115.898182z" fill="#FFFFFF" p-id="9742"></path></svg>