<?xml version="1.0" standalone="no"?><!DOCTYPE svg PUBLIC "-//W3C//DTD SVG 1.1//EN" "http://www.w3.org/Graphics/SVG/1.1/DTD/svg11.dtd"><svg t="1741854175491" class="icon" viewBox="0 0 1024 1024" version="1.1" xmlns="http://www.w3.org/2000/svg" p-id="2171" xmlns:xlink="http://www.w3.org/1999/xlink" width="256" height="256"><path d="M0 0.001434m184.318489 0l655.354626 0q184.318489 0 184.318488 184.318488l0 655.354626q0 184.318489-184.318488 184.318489l-655.354626 0q-184.318489 0-184.318489-184.318489l0-655.354626q0-184.318489 184.318489-184.318488Z" fill="#ECECF2" p-id="2172"></path><path d="M184.318489 0.001434h43.85756v225.482951c0 18.974564-9.318324 21.872461-26.82858 11.765663 0 0-189.520366-118.27103-185.926155-126.85208A183.294497 183.294497 0 0 1 184.318489 0.001434z" fill="#89DC7D" opacity=".998" p-id="2173"></path><path d="M228.831404 1023.993037H184.318489a184.318489 184.318489 0 0 1-184.318489-184.318489v-436.169223l228.831404 158.667499z" fill="#D07FB9" opacity=".999" p-id="2174"></path><path d="M913.236671 1008.807241A178.174539 178.174539 0 0 1 839.673115 1023.993037h-292.533922v-267.968363z" fill="#EDC643" opacity=".603" p-id="2175"></path><path d="M546.811516 457.72568v-457.601367L839.673115 0.001434a184.318489 184.318489 0 0 1 184.318488 184.318488v594.775283z" fill="#89DC7D" opacity=".999" p-id="2176"></path><path d="M276.477733 0.001434h225.278153v430.076473h-225.278153z" fill="#3779EF" opacity=".998" p-id="2177"></path><path d="M389.116809 634.876228m-266.237817 0a266.237817 266.237817 0 1 0 532.475634 0 266.237817 266.237817 0 1 0-532.475634 0Z" fill="#F3F3F9" opacity=".998" p-id="2178"></path><path d="M389.116809 634.876228m-215.038236 0a215.038237 215.038237 0 1 0 430.076473 0 215.038237 215.038237 0 1 0-430.076473 0Z" fill="#4184F3" opacity=".998" p-id="2179"></path><path d="M370.070565 487.02208a21.626703 21.626703 0 0 1 19.046244-12.677016v146.778956l-122.029079 132.98579a18.34993 18.34993 0 0 1 0.430076-14.335883z" fill="#FFFFFF" opacity=".998" p-id="2180"></path><path d="M408.111853 487.411197a21.555023 21.555023 0 0 0-18.995044-12.636057v146.328401l121.660443 132.576192a18.29873 18.29873 0 0 0-0.419837-14.253963z" fill="#DFE1E5" opacity=".998" p-id="2181"></path><path d="M389.116809 670.715934l-91.770127 87.407923a38.840002 38.840002 0 0 1-10.99767 7.823296 21.503824 21.503824 0 0 1-19.332962-11.837343L389.116809 621.052341z" fill="#C6C8D0" opacity=".998" p-id="2182"></path><path d="M389.116809 670.715934l91.770128 87.407923a38.840002 38.840002 0 0 0 10.99767 7.823296 21.503824 21.503824 0 0 0 19.322721-11.837343L389.116809 621.052341z" fill="#CFD1DA" opacity=".999" p-id="2183"></path></svg>