<?xml version="1.0" standalone="no"?><!DOCTYPE svg PUBLIC "-//W3C//DTD SVG 1.1//EN" "http://www.w3.org/Graphics/SVG/1.1/DTD/svg11.dtd"><svg t="1716004212622" class="icon" viewBox="0 0 1024 1024" version="1.1" xmlns="http://www.w3.org/2000/svg" p-id="13305" xmlns:xlink="http://www.w3.org/1999/xlink" width="200" height="200"><path d="M612.8896 360.96a18.944 18.944 0 0 0-26.752 1.6128l-60.7744 70.3744-53.0688-70.144a18.9696 18.9696 0 0 0-28.8 24.704l47.104 62.2592H455.936a18.9696 18.9696 0 1 0 0.3328 37.9392h48.8704v26.6752H456.192a18.9952 18.9952 0 0 0 0 37.9648h48.8704v47.7184a18.9952 18.9952 0 0 0 37.9648 0v-47.7184h55.6288a18.9952 18.9952 0 0 0 0-37.9648h-55.6288v-26.6752h55.9616a18.9696 18.9696 0 1 0-0.3328-37.9392h-37.632l53.504-62.0288a18.9696 18.9696 0 0 0-1.6384-26.7776z" fill="#0dafff" p-id="13306"></path><path d="M512 0a512 512 0 1 0 512 512A512 512 0 0 0 512 0z m-242.6624 635.2128V333.8496a64.4352 64.4352 0 0 1 64.2816-64.384h389.12a64.4608 64.4608 0 0 1 64.2816 64.3328v248.4992a49.6384 49.6384 0 0 0-23.6032-7.1936l-91.0592-3.4048a50.3296 50.3296 0 0 0-45.696 28.5696 49.6896 49.6896 0 0 0 8.448 55.6288l40.2688 43.52h-341.76a64.3584 64.3584 0 0 1-64.2816-64.2048z m399.0272 172.1856H388.48a20.2752 20.2752 0 1 1-0.1792-40.5504H668.16a20.2752 20.2752 0 1 1 0.1536 40.5504z m152.3712-25.1392a16.4352 16.4352 0 0 1-12.3648 4.8128 17.3056 17.3056 0 0 1-12.0832-5.5296l-137.0112-147.7888a16.9216 16.9216 0 0 1-2.8928-19.0976 17.6896 17.6896 0 0 1 16.2816-10.0352l89.6 3.3792a16.768 16.768 0 0 1 12.0576 5.504 16.5888 16.5888 0 0 1 4.6336 12.3904 16.896 16.896 0 0 1-5.4528 12.16 18.048 18.048 0 0 1-12.4928 4.5824l-47.7952-1.792 108.3904 116.9152a17.3568 17.3568 0 0 1-0.8704 24.4992z" fill="#0dafff" p-id="13307"></path></svg>