<?xml version="1.0" standalone="no"?><!DOCTYPE svg PUBLIC "-//W3C//DTD SVG 1.1//EN" "http://www.w3.org/Graphics/SVG/1.1/DTD/svg11.dtd"><svg t="1716004266100" class="icon" viewBox="0 0 1024 1024" version="1.1" xmlns="http://www.w3.org/2000/svg" p-id="13863" xmlns:xlink="http://www.w3.org/1999/xlink" width="200" height="200"><path d="M512 0a512 512 0 1 0 512 512A512 512 0 0 0 512 0z m289.4848 685.7984a85.6576 85.6576 0 0 1-85.5808 85.5552h-414.72a85.6576 85.6576 0 0 1-85.5808-85.5552v-117.76h184.96a32.1536 32.1536 0 0 0 22.912-9.7024l19.4816-20.1472 57.1904 106.3168a31.7696 31.7696 0 0 0 28.16 16.9472h1.4848a31.872 31.872 0 0 0 28.16-19.6096l74.24-174.464 31.232 88.448a32.1536 32.1536 0 0 0 30.208 21.5808h107.8784z m0-155.7248h-97.024l-40.6528-115.2a32 32 0 0 0-59.7504-1.9712l-77.2864 181.3504-52.0448-96.7168a30.848 30.848 0 0 0-6.0928-8.1152 31.9232 31.9232 0 0 0-45.1072 0.8704l-29.568 30.4896H215.6032v-165.7344a85.7088 85.7088 0 0 1 85.5808-85.5808h414.72a85.7088 85.7088 0 0 1 85.5808 85.5808z" fill="#37b9d3" p-id="13864"></path></svg>