<?xml version="1.0" standalone="no"?><!DOCTYPE svg PUBLIC "-//W3C//DTD SVG 1.1//EN" "http://www.w3.org/Graphics/SVG/1.1/DTD/svg11.dtd"><svg t="1744466734203" class="icon" viewBox="0 0 1024 1024" version="1.1" xmlns="http://www.w3.org/2000/svg" p-id="16800" xmlns:xlink="http://www.w3.org/1999/xlink" width="200" height="200"><path d="M0 0m349.090909 0l325.818182 0q349.090909 0 349.090909 349.090909l0 325.818182q0 349.090909-349.090909 349.090909l-325.818182 0q-349.090909 0-349.090909-349.090909l0-325.818182q0-349.090909 349.090909-349.090909Z" fill="#62A8FC" p-id="16801"></path><path d="M522.391273 201.285818l231.470545 133.643637a23.272727 23.272727 0 0 1 11.636364 20.154181v267.287273a23.272727 23.272727 0 0 1-11.636364 20.154182L522.391273 776.168727a23.272727 23.272727 0 0 1-23.272728 0L267.636364 642.525091a23.272727 23.272727 0 0 1-11.636364-20.154182v-267.287273a23.272727 23.272727 0 0 1 11.636364-20.154181l231.482181-133.643637a23.272727 23.272727 0 0 1 23.272728 0z m14.126545 176.128a15.069091 15.069091 0 0 0-16.942545 4.398546l-92.544 113.547636a12.695273 12.695273 0 0 0-1.408 14.161455c2.606545 4.701091 7.610182 7.575273 12.986182 7.482181h37.72509v68.282182c0.128 6.004364 4.177455 11.205818 9.960728 12.8 1.477818 0.465455 3.025455 0.698182 4.573091 0.721455 4.503273 0.023273 8.785455-1.989818 11.636363-5.492364l91.659637-115.618909c3.304727-4.072727 3.758545-9.541818 1.28-14.08-2.466909-4.596364-7.435636-7.412364-12.939637-7.412364h-44.648727l7.714909-64.779636c0.733091-6.109091-2.920727-11.752727-9.053091-14.010182z" fill="#FFFFFF" p-id="16802"></path></svg>