<?xml version="1.0" standalone="no"?><!DOCTYPE svg PUBLIC "-//W3C//DTD SVG 1.1//EN" "http://www.w3.org/Graphics/SVG/1.1/DTD/svg11.dtd"><svg t="1744466668888" class="icon" viewBox="0 0 1024 1024" version="1.1" xmlns="http://www.w3.org/2000/svg" p-id="16646" xmlns:xlink="http://www.w3.org/1999/xlink" width="200" height="200"><path d="M0 0m349.090909 0l325.818182 0q349.090909 0 349.090909 349.090909l0 325.818182q0 349.090909-349.090909 349.090909l-325.818182 0q-349.090909 0-349.090909-349.090909l0-325.818182q0-349.090909 349.090909-349.090909Z" fill="#3271FD" p-id="16647"></path><path d="M496.104727 216.087273a22.458182 22.458182 0 0 1 31.860364 0c32.488727 32 74.007273 61.986909 122.088727 86.202182a505.029818 505.029818 0 0 0 89.018182 34.827636A23.924364 23.924364 0 0 1 756.363636 360.226909V526.545455c0 192.965818-234.682182 266.426182-244.072727 269.27709L512 795.927273s-244.363636-72.459636-244.363636-269.370182V360.226909c0-10.938182 7.191273-20.224 17.349818-23.109818 29.090909-8.180364 59.112727-19.770182 89.018182-34.827636 48.081455-24.215273 89.669818-54.132364 122.100363-86.202182z m-3.816727 157.963636a9.739636 9.739636 0 0 0-2.490182 6.167273s4.421818 18.571636-6.202182 43.136c-7.191273 16.605091-26.065455 38.202182-36.002909 45.591273-29.800727 22.178909-34.734545 76.392727-22.341818 104.750545 16.128 36.968727 50.897455 48.058182 57.099636 49.291636 6.213818 1.233455 28.555636 8.634182 57.111273 3.700364 16.523636-2.850909 30.999273-7.784727 43.461818-14.778182 26.484364-16.442182 41.378909-39.04 44.683637-67.793454 1.408-12.183273 3.723636-46.824727-23.575273-66.548364-2.432 0-9.937455 3.525818-9.937455 9.867636v2.443637c-0.116364 11.613091-1.547636 31.080727-22.341818 34.525091 0 0-29.800727 2.466909-21.108363-30.813091 3.816727-14.626909 13.649455-27.112727 7.447272-55.458909-6.213818-28.334545-28.555636-57.914182-57.111272-65.314909-2.176-0.558545-6.679273-1.012364-8.692364 1.233454z" fill="#FFFFFF" p-id="16648"></path></svg>