<?xml version="1.0" standalone="no"?><!DOCTYPE svg PUBLIC "-//W3C//DTD SVG 1.1//EN" "http://www.w3.org/Graphics/SVG/1.1/DTD/svg11.dtd"><svg t="1724566498979" class="icon" viewBox="0 0 1024 1024" version="1.1" xmlns="http://www.w3.org/2000/svg" p-id="20934" xmlns:xlink="http://www.w3.org/1999/xlink" width="200" height="200"><path d="M298.285714 772.571429q-4.571429 5.142857-11.428571-1.714286-7.428571-6.285714-2.285714-10.857143 4.571429-5.142857 11.428571 1.714286 6.857143 6.285714 2.285714 10.857143z m-24-34.857143q5.142857 6.857143 0 10.857143-4.571429 3.428571-9.714285-4t0-10.285715q5.142857-4 9.714285 3.428572z m-34.857143-34.285715q-2.857143 4-7.428571 1.142858-5.714286-2.857143-4-6.857143 1.714286-2.857143 7.428571-1.142857 5.714286 2.857143 4 6.857142z m17.714286 19.428572q-3.428571 4-9.142857-1.714286-5.142857-6.285714-1.142857-9.142857 3.428571-3.428571 9.142857 1.714286 5.142857 6.285714 1.142857 9.142857z m73.714286 64q-2.285714 6.857143-10.857143 3.428571-9.714286-2.285714-7.428571-8.571428t10.857142-4q9.142857 2.857143 7.428572 9.142857z m36 2.857143q0 6.285714-9.142857 6.285714-9.714286 1.142857-9.714286-6.285714 0-6.285714 9.142857-6.285715 9.714286-1.142857 9.714286 6.285715z m33.142857-5.714286q1.142857 5.714286-8 8t-10.285714-4.571429 8-8.571428q9.142857-1.142857 10.285714 5.142857z m550.857143-546.285714v548.571428q0 68-48.285714 116.285715T786.285714 950.857143h-128q-9.142857 0-14-0.571429t-11.142857-2.857143-9.142857-8.285714-2.857143-15.714286v-136.571428q0-55.428571-29.714286-81.142857 32.571429-3.428571 58.571429-10.285715t53.714286-22.285714 46.285714-38 30.285714-60T792 489.142857q0-69.142857-45.142857-117.714286 21.142857-52-4.571429-116.571428-16-5.142857-46.285714 6.285714t-52.571429 25.142857l-21.714285 13.714286q-53.142857-14.857143-109.714286-14.857143t-109.714286 14.857143q-9.142857-6.285714-24.285714-15.428571T330.285714 262.571429 281.142857 254.857143q-25.142857 64.571429-4 116.571428-45.142857 48.571429-45.142857 117.714286 0 48.571429 11.714286 85.714286t30 60 46 38.285714 53.714285 22.285714 58.571429 10.285715q-22.857143 20.571429-28 58.857143-12 5.714286-25.714286 8.571428t-32.571428 2.857143-37.428572-12.285714T276.571429 728q-10.857143-18.285714-27.714286-29.714286t-28.285714-13.714285l-11.428572-1.714286q-12 0-16.571428 2.571428t-2.857143 6.571429 5.142857 8 7.428571 6.857143l4 2.857143q12.571429 5.714286 24.857143 21.714285t18 29.142858l5.714286 13.142857q7.428571 21.714286 25.142857 35.142857t38.285714 17.142857 39.714286 4 31.714286-2l13.142857-2.285714q0 21.714286 0.285714 58.857143t0.285714 38.857142q0 12.571429-6.285714 19.142858t-12.571428 7.428571-18.857143 0.857143H237.714286q-68 0-116.285715-48.285714T73.142857 786.285714V237.714286q0-68 48.285714-116.285715T237.714286 73.142857h548.571428q68 0 116.285715 48.285714T950.857143 237.714286z" p-id="20935" fill="#1d2129"></path></svg>