<?xml version="1.0" standalone="no"?><!DOCTYPE svg PUBLIC "-//W3C//DTD SVG 1.1//EN" "http://www.w3.org/Graphics/SVG/1.1/DTD/svg11.dtd"><svg t="1719473821252" class="icon" viewBox="0 0 1024 1024" version="1.1" xmlns="http://www.w3.org/2000/svg" p-id="1582" xmlns:xlink="http://www.w3.org/1999/xlink" width="200" height="200"><path d="M13 512a499 499 0 1 0 998 0 499 499 0 1 0-998 0z" fill="#008AFF" p-id="1583"></path><path d="M728.3 297.7l-2-2c-46.1-46.1-121.6-46.1-167.7 0L451.7 402.6c-46.1 46.1-46.1 121.6 0 167.7l2 2c3.8 3.8 7.9 7.3 12.1 10.5l39.1-39.1c-4.6-2.7-8.9-5.9-12.8-9.8l-2-2c-25-25-25-65.8 0-90.8L597 334.2c25-25 65.8-25 90.8 0l2 2c25 25 25 65.8 0 90.8l-48.3 48.3c8.4 20.7 12.4 42.8 12 64.9l74.8-74.8c46.1-46.1 46.1-121.6 0-167.7z m-158 154c-3.8-3.8-7.9-7.3-12.1-10.5l-39.1 39.1c4.6 2.7 8.9 5.9 12.8 9.8l2 2c25 25 25 65.8 0 90.8L427 689.8c-25 25-65.8 25-90.8 0l-2-2c-25-25-25-65.8 0-90.8l48.4-48.3c-8.4-20.7-12.4-42.8-12-64.9l-74.8 74.8c-46.1 46.1-46.1 121.6 0 167.7l2 2c46.1 46.1 121.6 46.1 167.7 0l106.9-106.9c46.1-46.1 46.1-121.6 0-167.7l-2.1-2z" fill="#FFFFFF" p-id="1584"></path></svg>