<?xml version="1.0" standalone="no"?><!DOCTYPE svg PUBLIC "-//W3C//DTD SVG 1.1//EN" "http://www.w3.org/Graphics/SVG/1.1/DTD/svg11.dtd"><svg t="1716003997595" class="icon" viewBox="0 0 1024 1024" version="1.1" xmlns="http://www.w3.org/2000/svg" p-id="11794" xmlns:xlink="http://www.w3.org/1999/xlink" width="200" height="200"><path d="M260.1984 566.7328l89.216 43.8784v-77.952l-89.216-43.9552z" fill="#3987ff" p-id="11795"></path><path d="M512 0a512 512 0 1 0 512 512A512 512 0 0 0 512 0z m-28.8 799.232a23.3984 23.3984 0 0 1-9.7024 19.2768 19.6352 19.6352 0 0 1-20.1984 1.5104l-225.536-112.9728a23.04 23.04 0 0 1-12.2624-20.7872v-242.2016a23.4752 23.4752 0 0 1 9.728-19.2768 19.6608 19.6608 0 0 1 20.1984-1.5104l225.5104 112.9472a23.04 23.04 0 0 1 12.2624 20.7872z m13.4144-297.9328l-239.9488-121.0368a23.7824 23.7824 0 0 1 0-41.5232l239.9488-121.0368a19.6096 19.6096 0 0 1 17.792 0l239.9488 121.0368a23.7824 23.7824 0 0 1 0 41.5232l-239.9488 121.0368a19.6096 19.6096 0 0 1-17.7664 0z m298.9568 184.8832a23.04 23.04 0 0 1-12.2624 20.7872l-225.4848 112.9728a19.712 19.712 0 0 1-20.224-1.5104 23.424 23.424 0 0 1-9.7024-19.2768v-242.1504a23.04 23.04 0 0 1 12.2624-20.7872l225.4848-112.9472a19.6864 19.6864 0 0 1 20.224 1.5104 23.3984 23.3984 0 0 1 9.7024 19.2768z" fill="#3987ff" p-id="11796"></path></svg>