<?xml version="1.0" standalone="no"?><!DOCTYPE svg PUBLIC "-//W3C//DTD SVG 1.1//EN" "http://www.w3.org/Graphics/SVG/1.1/DTD/svg11.dtd"><svg t="1743488804156" class="icon" viewBox="0 0 1024 1024" version="1.1" xmlns="http://www.w3.org/2000/svg" p-id="3516" xmlns:xlink="http://www.w3.org/1999/xlink" width="200" height="200"><path d="M0 0m292.576 0l438.848 0q292.576 0 292.576 292.576l0 438.848q0 292.576-292.576 292.576l-438.848 0q-292.576 0-292.576-292.576l0-438.848q0-292.576 292.576-292.576Z" fill="#DC95D7" p-id="3517"></path><path d="M750.496 364.992c-15.424-88.992-99.424-148.384-187.52-132.736-88 15.68-162.4 84.224-146.848 173.12 3.36 19.232 12.64 49.216 23.584 70.784l-159.904 230.72c-5.92 8.48-9.28 23.808-7.488 34.112l6.944 39.456c-6.624-38.016 1.76 13.76 6.912 13.536l52.672 0.8c10.176-1.792 22.944-10.4 28.512-19.136l63.296-98.976 0.576-0.64 55.232 4.352 73.92-115.84c24.288 4.096 59.04 2.656 79.744-0.928 87.68-15.68 126.048-109.696 110.4-198.624zM323.072 722.688l-13.824 8.736 3.2-15.68 150.08-214.784 10.4 7.296-149.856 214.432z m349.472-312.16c-24.256 34.88-48.96 10.272-83.52-14.208-34.56-24.48-65.984-39.456-41.728-74.464a76 76 0 0 1 106.464-19.04 77.888 77.888 0 0 1 18.784 107.712z" fill="#FFFFFF" p-id="3518"></path></svg>