<?xml version="1.0" standalone="no"?><!DOCTYPE svg PUBLIC "-//W3C//DTD SVG 1.1//EN" "http://www.w3.org/Graphics/SVG/1.1/DTD/svg11.dtd"><svg t="1744466113717" class="icon" viewBox="0 0 1024 1024" version="1.1" xmlns="http://www.w3.org/2000/svg" p-id="1270" xmlns:xlink="http://www.w3.org/1999/xlink" width="200" height="200"><path d="M768 1024H256C115.2 1024 0 908.8 0 768V256C0 115.2 115.2 0 256 0h512c140.8 0 256 115.2 256 256v512c0 140.8-115.2 256-256 256z" fill="#0EB4F6" p-id="1271"></path><path d="M768 324.266667c-14.933333-91.733333-100.266667-151.466667-192-134.4-89.6 14.933333-166.4 85.333333-149.333333 177.066666 4.266667 19.2 12.8 51.2 23.466666 72.533334l-162.133333 234.666666c-6.4 8.533333-8.533333 23.466667-8.533333 34.133334l6.4 40.533333c-6.4-38.4 2.133333 14.933333 6.4 12.8h53.333333c10.666667-2.133333 23.466667-10.666667 29.866667-19.2l64-100.266667 55.466666 4.266667 74.666667-117.333333c25.6 4.266667 59.733333 2.133333 81.066667 0 96-17.066667 134.4-113.066667 117.333333-204.8zM332.8 689.066667l-12.8 8.533333 4.266667-14.933333 153.6-219.733334 10.666666 6.4c-2.133333 2.133333-155.733333 219.733333-155.733333 219.733334z m356.266667-317.866667c-25.6 36.266667-49.066667 10.666667-85.333334-14.933333-36.266667-25.6-68.266667-40.533333-42.666666-76.8 25.6-36.266667 72.533333-44.8 108.8-19.2 36.266667 25.6 44.8 74.666667 19.2 110.933333z" fill="#FFFFFF" p-id="1272"></path></svg>