<?xml version="1.0" standalone="no"?><!DOCTYPE svg PUBLIC "-//W3C//DTD SVG 1.1//EN" "http://www.w3.org/Graphics/SVG/1.1/DTD/svg11.dtd"><svg t="1744461414473" class="icon" viewBox="0 0 1024 1024" version="1.1" xmlns="http://www.w3.org/2000/svg" p-id="1268" xmlns:xlink="http://www.w3.org/1999/xlink" width="200" height="200"><path d="M0 0m219.428571 0l585.142858 0q219.428571 0 219.428571 219.428571l0 585.142858q0 219.428571-219.428571 219.428571l-585.142858 0q-219.428571 0-219.428571-219.428571l0-585.142858q0-219.428571 219.428571-219.428571Z" fill="#15BC84" p-id="1269"></path><path d="M512 243.218286l-0.018286 156.854857-1.426285-0.073143c-11.593143 0-21.138286 8.813714-22.290286 20.114286l-0.109714 2.285714v67.2h-67.2a22.4 22.4 0 0 0-2.285715 44.690286l2.285715 0.109714h67.2V601.6A22.4 22.4 0 0 0 512 623.963429v156.818285c-6.765714 0.237714-13.586286-1.28-19.712-4.608l-3.017143-1.792-192.768-135.588571a38.4 38.4 0 0 1-16.182857-28.324572l-0.128-3.108571V354.614857c0.585143-18.870857 16.146286-33.773714 35.035429-34.56 85.010286-3.419429 141.933714-45.769143 171.52-69.12 6.930286-5.467429 16.146286-8.045714 25.234285-7.716571z m0 0c9.106286-0.310857 18.322286 2.249143 25.252571 7.734857 29.586286 23.332571 86.509714 65.682286 171.52 69.12 18.889143 0.768 34.450286 15.670857 35.035429 34.541714v252.745143l-0.128 3.108571a38.4 38.4 0 0 1-16.182857 28.324572l-192.768 135.588571-3.017143 1.792A38.436571 38.436571 0 0 1 512 780.8v-156.818286l1.444571 0.036572c12.379429 0 22.4-10.020571 22.4-22.4v-67.2h67.2l2.285715-0.109715a22.4 22.4 0 0 0-2.285715-44.690285h-67.2V422.4l-0.109714-2.285714a22.4 22.4 0 0 0-22.290286-20.114286l-1.426285 0.073143z" fill="#FFFFFF" p-id="1270"></path></svg>