<?xml version="1.0" standalone="no"?><!DOCTYPE svg PUBLIC "-//W3C//DTD SVG 1.1//EN" "http://www.w3.org/Graphics/SVG/1.1/DTD/svg11.dtd"><svg t="1753490711178" class="icon" viewBox="0 0 1024 1024" version="1.1" xmlns="http://www.w3.org/2000/svg" p-id="25141" xmlns:xlink="http://www.w3.org/1999/xlink" width="200" height="200"><path d="M544.2048 568.8576h-173.3376a21.12 21.12 0 1 0 0 42.2144h173.7472a21.0176 21.0176 0 0 0 21.0432-21.0944 21.4016 21.4016 0 0 0-21.4528-21.12z" fill="#429EFD" p-id="25142"></path><path d="M441.1136 671.4368h-70.3744a21.12 21.12 0 1 0 0 42.2144h70.784a21.0176 21.0176 0 0 0 21.0432-21.0944 21.376 21.376 0 0 0-21.4528-21.12z" fill="#429EFD" p-id="25143"></path><path d="M649.9584 252.928h-165.5552v217.1392a8.8832 8.8832 0 0 0 2.56 5.3504 9.7024 9.7024 0 0 0 6.272 0.7936l66.8416-28.9024a13.4656 13.4656 0 0 1 11.3152 0l68.096 28.5184a10.6752 10.6752 0 0 0 8.0128-0.4096 7.68 7.68 0 0 0 2.56-6.6048z" fill="#429EFD" p-id="25144"></path><path d="M512 0a512 512 0 1 0 512 512A512 512 0 0 0 512 0z m238.4128 772.352a34.304 34.304 0 0 1-34.4576 33.8944H308.0704a34.3296 34.3296 0 0 1-34.4576-33.8944V251.6224a34.3296 34.3296 0 0 1 34.4576-33.8944h407.4752a35.3792 35.3792 0 0 1 24.6784 10.0608 33.92 33.92 0 0 1 10.24 24.2944z" fill="#429EFD" p-id="25145"></path></svg>