<?xml version="1.0" standalone="no"?><!DOCTYPE svg PUBLIC "-//W3C//DTD SVG 1.1//EN" "http://www.w3.org/Graphics/SVG/1.1/DTD/svg11.dtd"><svg t="1744465625277" class="icon" viewBox="0 0 1024 1024" version="1.1" xmlns="http://www.w3.org/2000/svg" p-id="30741" xmlns:xlink="http://www.w3.org/1999/xlink" width="200" height="200"><path d="M0.2816 0m256 0l512 0q256 0 256 256l0 512q0 256-256 256l-512 0q-256 0-256-256l0-512q0-256 256-256Z" fill="#71CE66" p-id="30742"></path><path d="M652.032 454.8096l-148.48 134.0672a19.712 19.712 0 0 1-3.4304 4.0448 22.9632 22.9632 0 0 1-15.8464 5.7088 22.912 22.912 0 0 1-15.7952-5.7088 19.8656 19.8656 0 0 1-3.456-4.0448l-79.36-71.68a18.176 18.176 0 0 1 0-27.5968 23.3728 23.3728 0 0 1 30.6176 0l67.9936 61.44 137.1648-123.8272a23.3472 23.3472 0 0 1 30.592 0 18.176 18.176 0 0 1 0 27.5968m79.1552-114.2784a37.4016 37.4016 0 0 0-24.1408-8.6016c-0.8192 0-1.6384 0-2.4576 0.0512-0.512 0.0512-6.1952 0.3584-15.104 0.3584-14.72 0-43.52-0.9472-70.784-6.9632C583.5008 317.5424 542.8736 281.344 531.0464 274.176A37.888 37.888 0 0 0 511.36 268.8c-6.8352 0-13.696 1.792-19.6608 5.376-1.4336 0.8704-43.9808 41.9584-85.5808 51.2-27.264 6.016-56.576 6.9632-71.3216 6.9632-8.9088 0-14.592-0.3072-15.1296-0.3584-0.768-0.0512-1.536-0.0512-2.3296-0.0512-8.96 0-17.6384 3.0464-24.2176 8.6016-7.168 6.0416-11.2384 14.4896-11.2384 23.3472v79.9232c0 295.424 214.144 333.4656 223.232 334.976a41.4464 41.4464 0 0 0 12.5184 0c9.088-1.536 224.8192-39.552 224.8192-334.976V363.8784c0-8.8576-4.096-17.3056-11.264-23.3472" fill="#FFFFFF" p-id="30743"></path></svg>