<?xml version="1.0" standalone="no"?><!DOCTYPE svg PUBLIC "-//W3C//DTD SVG 1.1//EN" "http://www.w3.org/Graphics/SVG/1.1/DTD/svg11.dtd"><svg t="1710984531922" class="icon" viewBox="0 0 1024 1024" version="1.1" xmlns="http://www.w3.org/2000/svg" p-id="9816" xmlns:xlink="http://www.w3.org/1999/xlink" width="200" height="200"><path d="M888.650667 639.637333a16 16 0 0 1-12.682667 18.741334l-72.117333 13.909333 17.28 64.490667a16 16 0 0 1-30.912 8.277333l-21.728-81.088a16 16 0 0 1 12.426666-19.84l88.992-17.173333a16 16 0 0 1 18.741334 12.693333zM249.728 338.346667a16 16 0 0 1-9.344 18.922666l-69.226667 28.576a16 16 0 0 1-12.213333-29.578666l56.245333-23.221334-16.426666-61.28a16 16 0 0 1 30.912-8.277333l20.053333 74.848zM817.482667 251.968a16 16 0 0 1 9.813333 20.384l-24.277333 69.333333 64.426666 17.514667a16 16 0 1 1-8.394666 30.88l-81.013334-22.037333a16 16 0 0 1-10.901333-20.725334l29.962667-85.546666a16 16 0 0 1 20.384-9.813334zM235.594667 652.48a16 16 0 0 1 11.648 17.6l-10.133334 74.197333a16 16 0 0 1-31.712-4.330666l8.245334-60.288-61.226667-16.64a16 16 0 1 1 8.405333-30.88l74.773334 20.330666zM443.754667 118.901333a16 16 0 0 1 22.570666 1.610667l48.106667 55.509333 47.210667-47.210666a16 16 0 1 1 22.624 22.634666l-59.36 59.36a16 16 0 0 1-23.402667-0.842666l-59.36-68.48a16 16 0 0 1 1.6-22.581334zM502.282667 822.869333a16 16 0 0 1 21.066666-1.365333l59.36 45.664a16 16 0 1 1-19.52 25.365333l-48.213333-37.098666-44.864 44.864a16 16 0 1 1-22.624-22.634667l54.794667-54.794667z" fill="#75C4FE" p-id="9817"></path><path d="M901.28 727.573333a21.333333 21.333333 0 0 1-29.141333 7.808L140.565333 313.013333a21.333333 21.333333 0 1 1 21.333334-36.949333l731.573333 422.368a21.333333 21.333333 0 0 1 7.808 29.141333z" fill="#43AEFC" p-id="9818"></path><path d="M864.533333 566.496a21.333333 21.333333 0 0 1-13.226666 27.114667L736 633.28l14.336 118.890667a21.333333 21.333333 0 0 1-42.368 5.098666l-16.384-136a21.333333 21.333333 0 0 1 14.24-22.72l131.594667-45.290666a21.333333 21.333333 0 0 1 27.114666 13.226666zM342.4 389.706667a21.333333 21.333333 0 0 1-12.896 22.677333l-111.210667 46.506667a21.333333 21.333333 0 1 1-16.458666-39.36l96.010666-40.16-16.362666-115.733334a21.333333 21.333333 0 1 1 42.24-5.973333l18.677333 132.053333zM899.84 285.301333a21.333333 21.333333 0 0 1-7.925333 29.109334L158.773333 734.048a21.333333 21.333333 0 0 1-21.194666-37.024L870.72 277.376a21.333333 21.333333 0 0 1 29.12 7.914667z" fill="#43AEFC" p-id="9819"></path><path d="M742.154667 235.989333a21.333333 21.333333 0 0 1 16.768 25.077334l-23.733334 119.605333 109.952 47.456a21.333333 21.333333 0 1 1-16.906666 39.168l-125.770667-54.272a21.333333 21.333333 0 0 1-12.48-23.744l27.093333-136.512a21.333333 21.333333 0 0 1 25.066667-16.778667zM326.634667 598.24A21.333333 21.333333 0 0 1 339.733333 620.8l-15.765333 119.509333a21.333333 21.333333 0 1 1-42.304-5.578666l13.621333-103.178667-108.256-44.106667a21.333333 21.333333 0 0 1 16.106667-39.509333l123.498667 50.314667zM513.6 64a21.333333 21.333333 0 0 1 21.333333 21.333333v844.746667a21.333333 21.333333 0 1 1-42.666666 0V85.333333a21.333333 21.333333 0 0 1 21.333333-21.333333z" fill="#43AEFC" p-id="9820"></path><path d="M392.469333 176.362667a21.333333 21.333333 0 0 1 30.101334-2.101334l92.010666 80 95.797334-71.84a21.333333 21.333333 0 0 1 25.6 34.133334L526.4 298.752a21.333333 21.333333 0 0 1-26.794667-0.970667l-105.024-91.328a21.333333 21.333333 0 0 1-2.101333-30.090666zM500.448 716.928a21.333333 21.333333 0 0 1 26.069333-0.170667l95.893334 73.066667a21.333333 21.333333 0 0 1-25.856 33.930667l-82.784-63.072-92.053334 72.042666a21.333333 21.333333 0 1 1-26.293333-33.6l105.024-82.197333z" fill="#43AEFC" p-id="9821"></path><path d="M388.16 295.530667a21.333333 21.333333 0 0 1 19.2-1.696l107.274667 42.912 116.181333-34.421334a21.333333 21.333333 0 0 1 27.082667 16.8l17.045333 98.026667 77.034667 72.757333a21.333333 21.333333 0 0 1-0.426667 31.413334l-81.866667 73.258666-30.378666 121.493334a21.333333 21.333333 0 0 1-29.194667 14.4L512.448 688l-106.506667 34.08a21.333333 21.333333 0 0 1-27.776-18.688l-8.309333-107.978667-100.448-62.773333a21.333333 21.333333 0 0 1-1.493333-35.157333l101.866666-76.394667 8.384-109.088a21.333333 21.333333 0 0 1 9.994667-16.48z m30.325333 48.704l-6.912 89.770666a21.333333 21.333333 0 0 1-8.469333 15.424l-84.693333 63.530667 83.2 52a21.333333 21.333333 0 0 1 9.962666 16.448l7.061334 91.818667 88.458666-28.309334a21.333333 21.333333 0 0 1 15.008 0.757334l81.92 35.626666 25.856-103.424a21.333333 21.333333 0 0 1 6.474667-10.730666l69.461333-62.144-65.312-61.696a21.333333 21.333333 0 0 1-6.378666-11.850667l-14.154667-81.418667-100.32 29.717334a21.333333 21.333333 0 0 1-13.973333-0.64l-87.189334-34.88z" fill="#43AEFC" p-id="9822"></path><path d="M513.216 343.306667a16 16 0 0 1 14.517333 8.512l36.085334 68.16 85.248-8.106667a16 16 0 0 1 15.498666 23.690667l-40.928 73.664 40.256 60.373333a16 16 0 0 1-13.312 24.885333h-85.76l-36.768 77.6a16 16 0 0 1-28.938666-0.032l-32.714667-69.525333-73.290667-8.149333a16 16 0 0 1-11.552-24.768l39.744-59.626667-48.874666-73.312a16 16 0 0 1 14.901333-24.8l80.074667 8.010667 31.712-67.392a16 16 0 0 1 14.101333-9.173334z m1.216 51.786666l-22.890667 48.64a16 16 0 0 1-16.074666 9.12l-57.642667-5.76 36.021333 54.016a16 16 0 0 1 0 17.76l-31.072 46.613334 56.053334 6.229333a16 16 0 0 1 12.714666 9.088l22.101334 46.965333 26.581333-56.138666a16 16 0 0 1 14.464-9.141334h65.994667l-29.077334-43.626666a16 16 0 0 1-0.672-16.64l30.890667-55.605334-65.621333 6.24a16 16 0 0 1-15.658667-8.437333l-26.112-49.322667z" fill="#75C4FE" p-id="9823"></path></svg>