<?xml version="1.0" standalone="no"?><!DOCTYPE svg PUBLIC "-//W3C//DTD SVG 1.1//EN" "http://www.w3.org/Graphics/SVG/1.1/DTD/svg11.dtd"><svg t="1720354081352" class="icon" viewBox="0 0 1024 1024" version="1.1" xmlns="http://www.w3.org/2000/svg" p-id="8910" xmlns:xlink="http://www.w3.org/1999/xlink" width="200" height="200"><path d="M740.113 555.315l0.205-0.307c0.512-0.82 0.887-1.707 1.4-2.526 0.204-0.41 0.409-0.82 0.716-1.229 0.205-0.307 0.341-0.682 0.512-1.024 5.598-10.956 8.636-23.04 8.738-35.328v-2.457a80.76 80.76 0 0 0-8.738-35.362c-0.205-0.308-0.307-0.683-0.512-1.024a7.578 7.578 0 0 0-0.683-1.195c-0.546-0.82-0.921-1.707-1.433-2.526-0.103-0.102-0.103-0.205-0.205-0.341a71.339 71.339 0 0 0-4.983-7.305v-0.102a76.902 76.902 0 0 0-8.124-9.148l-0.205-0.17a106.462 106.462 0 0 0-5.086-4.472c-0.41-0.341-0.682-0.614-1.126-0.922l-3.652-2.73a5.632 5.632 0 0 1-0.82-0.615l-250.88-168.14a80.247 80.247 0 0 0-60.586-12.186 80.213 80.213 0 0 0-51.405 34.236 80.862 80.862 0 0 0 22.05 112.06l150.87 101.17-150.972 101.172a80.862 80.862 0 0 0-22.05 112.06 80.213 80.213 0 0 0 51.404 34.235 80.247 80.247 0 0 0 60.553-12.185L715.913 580.71a5.632 5.632 0 0 0 0.819-0.614l1.536-1.024 2.218-1.604 1.127-0.922c1.843-1.433 3.447-2.935 5.086-4.437l0.204-0.24c2.936-2.832 5.7-5.87 8.124-9.147v-0.102c1.912-2.321 3.55-4.779 5.086-7.305z" fill="#FF4A4A" p-id="8911"></path><path d="M979.149 312.627a504.286 504.286 0 0 0-108.886-161.45A506.778 506.778 0 0 0 510.976 2.526c-86.016 0-171.042 21.913-245.93 63.385A510.26 510.26 0 0 0 85.162 233.335 506.368 506.368 0 0 0 2.97 510.464c0 68.574 13.38 135.1 39.936 197.769a505.651 505.651 0 0 0 108.783 161.45A508.757 508.757 0 0 0 313.105 978.57a509.61 509.61 0 0 0 435.712-19.115A512.341 512.341 0 0 0 926.583 802.61a504.9 504.9 0 0 0 92.331-292.181 501.214 501.214 0 0 0-39.8-197.769zM510.976 857.532c-191.386 0-347.136-155.717-347.136-347.136 0-67.55 19.456-132.95 56.115-189.235a346.453 346.453 0 0 1 291.021-157.867c191.42 0 347.136 155.716 347.136 347.136 0 71.919-21.845 140.97-63.078 199.51a347.477 347.477 0 0 1-284.058 147.592z" fill="#38CEFF" p-id="8912"></path><path d="M907.332 690.415a80.35 80.35 0 0 0-112.06 19.524 80.35 80.35 0 0 0 65.707 126.669c25.293 0 50.176-11.878 65.843-34.133a80.555 80.555 0 0 0-19.49-112.06z m-798.72-345.77a80.486 80.486 0 0 0 87.894-134.827 80.486 80.486 0 0 0-87.86 134.826z" fill="#0B99FF" p-id="8913"></path><path d="M751.684 512.444a82.193 82.193 0 0 0-8.738-35.362c-0.205-0.308-0.307-0.683-0.512-1.024a7.578 7.578 0 0 0-0.683-1.195c-0.546-0.82-0.921-1.707-1.433-2.526-0.103-0.102-0.103-0.205-0.205-0.341-0.717-1.093-1.331-2.219-2.15-3.243-0.922-1.4-1.912-2.73-2.936-4.062v-0.102a87.04 87.04 0 0 0-8.124-9.148l-0.204-0.17a106.462 106.462 0 0 0-5.086-4.472c-0.41-0.341-0.683-0.614-1.127-0.922a17.954 17.954 0 0 0-2.218-1.638l-1.536-1.024a79.701 79.701 0 0 0-45.91-14.2c-16.042 0-31.607 4.78-44.885 13.722l-100.01 67.038 100.01 67.038c13.312 8.943 28.843 13.721 44.885 13.721a80.982 80.982 0 0 0 45.91-14.233l1.536-1.024 2.218-1.604 1.127-0.922a157.672 157.672 0 0 0 5.086-4.437l0.204-0.24a77.32 77.32 0 0 0 8.124-9.147v-0.102c1.024-1.298 1.912-2.629 2.936-4.062l2.15-3.243 0.205-0.307a31.88 31.88 0 0 0 1.4-2.526c0.204-0.41 0.409-0.82 0.716-1.229 0.205-0.307 0.341-0.683 0.512-1.024 5.598-10.957 8.533-23.04 8.738-35.362v-2.628z" fill="#F5001A" p-id="8914"></path></svg>