<svg viewBox="0 0 400 300" fill="none" xmlns="http://www.w3.org/2000/svg"><path fill-rule="evenodd" clip-rule="evenodd" d="M322.871 140.643c0-23.6-19.1-42.7-42.7-42.7s-42.7 19.1-42.7 42.7 19.1 42.7 42.7 42.7c23.5 0 42.7-19.1 42.7-42.7ZM159.47 183.343c0-23.6-19.1-42.7-42.7-42.7s-42.7 19.1-42.7 42.7 19.1 42.7 42.7 42.7c23.6.1 42.7-19.1 42.7-42.7ZM100.07 127.143c0-12.2-9.8-22-22-22s-22 9.8-22 22 9.9 22 22 22 22-9.8 22-22Z" fill="#EFEFEF"/><path fill-rule="evenodd" clip-rule="evenodd" d="M263.97 101.043s-11.8-5.2-11.9-13.2c-.1-8 23.9-9.8 18.6-21.4-5.3-11.7-17.8-6.3-21.9-12.1-4.1-5.8 4.1-13.5-7.6-16.9-11.6-3.5-16.1 7.5-24 10.5-7.9 3.1-14.1-1-20.4-1-6.3 0-5.6 3.2-12.2 7.4s-8.6-.5-19.5 3.8c-10.9 4.2-1.9 22-6.4 26.4-4.5 4.4-13.3 12-13.3 28.8s26.5 29.3 26.5 29.3l64.9 3.5s39.7-26.9 33.9-40c-2.6-3.4-6.7-5.1-6.7-5.1Z" fill="#000"/><path fill-rule="evenodd" clip-rule="evenodd" d="M119.47 121.343v-22.8c-.1-2.9-4.6-2.3-4.8-.1v18.2l-2.2-6.2c-1.2-2.5-5.7-2.3-4.8 1.1l1.4 5.4-3.5-5.4c-1.1-2.9-4.2-.8-3.5 1.2l5.1 9.1-5.9-7.3c-1.5-1.7-4 0-3.1 1.8l6.2 10.4c1.9 4.1 2.8 8.7 2.7 13.2v.6h12.4l1.1-9.7 5.7-11.1c1-1.8-2.1-3.9-3-1.8l-3.8 5.9v-2.5Z" fill="#fff"/><path d="M119.47 121.343v-22.8c-.1-2.9-4.6-2.3-4.8-.1v18.2l-2.2-6.2c-1.2-2.5-5.7-2.3-4.8 1.1l1.4 5.4-3.5-5.4c-1.1-2.9-4.2-.8-3.5 1.2l5.1 9.1-5.9-7.3c-1.5-1.7-4 0-3.1 1.8l6.2 10.4c1.9 4.1 2.8 8.7 2.7 13.2v.6h12.4l1.1-9.7 5.7-11.1c1-1.8-2.1-3.9-3-1.8l-3.8 5.9v-2.5Z" stroke="#000" stroke-width="1.5"/><path d="M145.494 163.806c-5.8 7.5-14.1 25.5-14.1 25.5l-8.8-47.4-20.4-4.2s-9.4 67.8 7.8 87.1c17.2 19.2 35.5-8.6 35.5-8.6v47.1h105.5l12.6-10.8 2.7 7.8s24.3-7.8 31.4-21.6c7.1-13.8 8.4-32.1 0-47.6-20.7-38.1-50.9-56.3-90.5-54.4-27.3 1.2-47.4 8.6-61.7 27.1Z" stroke="#000" stroke-width="1.5"/><mask id="a" style="mask-type:alpha" maskUnits="userSpaceOnUse" x="99" y="136" width="205" height="128"><path d="M145.494 163.806c-5.8 7.5-14.1 25.5-14.1 25.5l-8.8-47.4-20.4-4.2s-9.4 67.8 7.8 87.1c17.2 19.2 35.5-8.6 35.5-8.6v47.1h105.5l12.6-10.8 2.7 7.8s24.3-7.8 31.4-21.6c7.1-13.8 8.4-32.1 0-47.6-20.7-38.1-50.9-56.3-90.5-54.4-27.3 1.2-47.4 8.6-61.7 27.1Z" fill="#fff"/></mask><g mask="url(#a)"><path fill-rule="evenodd" clip-rule="evenodd" d="M145.494 163.806c-5.8 7.5-14.1 25.5-14.1 25.5l-8.8-47.4-20.4-4.2s-9.4 67.8 7.8 87.1c17.2 19.2 35.5-8.6 35.5-8.6v47.1h105.5l12.6-10.8 2.7 7.8s24.3-7.8 31.4-21.6c7.1-13.8 8.4-32.1 0-47.6-20.7-38.1-50.9-56.3-90.5-54.4-27.3 1.2-47.4 8.6-61.7 27.1Z" fill="#fff"/></g><mask id="b" style="mask-type:alpha" maskUnits="userSpaceOnUse" x="99" y="136" width="205" height="128"><path d="M145.494 163.806c-5.8 7.5-14.1 25.5-14.1 25.5l-8.8-47.4-20.4-4.2s-9.4 67.8 7.8 87.1c17.2 19.2 35.5-8.6 35.5-8.6v47.1h105.5l12.6-10.8 2.7 7.8s24.3-7.8 31.4-21.6c7.1-13.8 8.4-32.1 0-47.6-20.7-38.1-50.9-56.3-90.5-54.4-27.3 1.2-47.4 8.6-61.7 27.1Z" fill="#fff"/></mask><g mask="url(#b)"><path fill-rule="evenodd" clip-rule="evenodd" d="M145.194 231.106v34.9h105.8l10.8-62.1c1.1-6.4-.6-13-4.8-17.9-4.2-5-10.3-7.8-16.8-7.8h-73c-12.1 0-22 9.8-22 22v30.9Z" fill="#EFEFEF"/><path d="M145.194 231.106v34.9h105.8l10.8-62.1c1.1-6.4-.6-13-4.8-17.9-4.2-5-10.3-7.8-16.8-7.8h-73c-12.1 0-22 9.8-22 22v30.9Z" stroke="#000" stroke-width="1.5"/></g><mask id="c" style="mask-type:alpha" maskUnits="userSpaceOnUse" x="99" y="136" width="205" height="128"><path d="M145.494 163.806c-5.8 7.5-14.1 25.5-14.1 25.5l-8.8-47.4-20.4-4.2s-9.4 67.8 7.8 87.1c17.2 19.2 35.5-8.6 35.5-8.6v47.1h105.5l12.6-10.8 2.7 7.8s24.3-7.8 31.4-21.6c7.1-13.8 8.4-32.1 0-47.6-20.7-38.1-50.9-56.3-90.5-54.4-27.3 1.2-47.4 8.6-61.7 27.1Z" fill="#fff"/></mask><mask id="d" style="mask-type:alpha" maskUnits="userSpaceOnUse" x="99" y="136" width="205" height="128"><path d="M145.494 163.806c-5.8 7.5-14.1 25.5-14.1 25.5l-8.8-47.4-20.4-4.2s-9.4 67.8 7.8 87.1c17.2 19.2 35.5-8.6 35.5-8.6v47.1h105.5l12.6-10.8 2.7 7.8s24.3-7.8 31.4-21.6c7.1-13.8 8.4-32.1 0-47.6-20.7-38.1-50.9-56.3-90.5-54.4-27.3 1.2-47.4 8.6-61.7 27.1Z" fill="#fff"/></mask><g mask="url(#d)"><path fill-rule="evenodd" clip-rule="evenodd" d="M168.094 203.206c2 0 3.9-.8 5.3-2.2 1.4-1.4 2.2-3.3 2.2-5.3v-57.1c0-1.8-.9-3.4-2.4-4.3-1.5-.9-3.4-.9-4.9-.1l-5 2.7c-1.6.9-2.6 2.6-2.6 4.4v54.4c0 2 .8 3.9 2.2 5.3 1.3 1.4 3.2 2.2 5.2 2.2Z" fill="#fff"/><path d="M168.094 203.206c2 0 3.9-.8 5.3-2.2 1.4-1.4 2.2-3.3 2.2-5.3v-57.1c0-1.8-.9-3.4-2.4-4.3-1.5-.9-3.4-.9-4.9-.1l-5 2.7c-1.6.9-2.6 2.6-2.6 4.4v54.4c0 2 .8 3.9 2.2 5.3 1.3 1.4 3.2 2.2 5.2 2.2Z" stroke="#000" stroke-width="1.5"/></g><mask id="e" style="mask-type:alpha" maskUnits="userSpaceOnUse" x="99" y="136" width="205" height="128"><path d="M145.494 163.806c-5.8 7.5-14.1 25.5-14.1 25.5l-8.8-47.4-20.4-4.2s-9.4 67.8 7.8 87.1c17.2 19.2 35.5-8.6 35.5-8.6v47.1h105.5l12.6-10.8 2.7 7.8s24.3-7.8 31.4-21.6c7.1-13.8 8.4-32.1 0-47.6-20.7-38.1-50.9-56.3-90.5-54.4-27.3 1.2-47.4 8.6-61.7 27.1Z" fill="#fff"/></mask><g mask="url(#e)"><path fill-rule="evenodd" clip-rule="evenodd" d="M247.894 203.206c2 0 3.9-.8 5.3-2.2 1.4-1.4 2.2-3.3 2.2-5.3v-57.5c0-1.8-.9-3.4-2.4-4.3-1.5-.9-3.4-.9-4.9-.1l-5 2.7c-1.6.9-2.6 2.6-2.6 4.4v54.9c0 2 .8 3.9 2.2 5.3 1.3 1.3 3.3 2.1 5.2 2.1Z" fill="#fff"/><path d="M247.894 203.206c2 0 3.9-.8 5.3-2.2 1.4-1.4 2.2-3.3 2.2-5.3v-57.5c0-1.8-.9-3.4-2.4-4.3-1.5-.9-3.4-.9-4.9-.1l-5 2.7c-1.6.9-2.6 2.6-2.6 4.4v54.9c0 2 .8 3.9 2.2 5.3 1.3 1.3 3.3 2.1 5.2 2.1Z" stroke="#000" stroke-width="1.5"/></g><mask id="f" style="mask-type:alpha" maskUnits="userSpaceOnUse" x="99" y="136" width="205" height="128"><path d="M145.494 163.806c-5.8 7.5-14.1 25.5-14.1 25.5l-8.8-47.4-20.4-4.2s-9.4 67.8 7.8 87.1c17.2 19.2 35.5-8.6 35.5-8.6v47.1h105.5l12.6-10.8 2.7 7.8s24.3-7.8 31.4-21.6c7.1-13.8 8.4-32.1 0-47.6-20.7-38.1-50.9-56.3-90.5-54.4-27.3 1.2-47.4 8.6-61.7 27.1Z" fill="#fff"/></mask><g mask="url(#f)"><path fill-rule="evenodd" clip-rule="evenodd" d="M171.095 195.806c0-1.7-1.4-3.1-3.1-3.1-1.7 0-3.1 1.4-3.1 3.1 0 1.7 1.4 3.1 3.1 3.1 1.8 0 3.1-1.4 3.1-3.1Z" fill="#000"/></g><mask id="g" style="mask-type:alpha" maskUnits="userSpaceOnUse" x="99" y="136" width="205" height="128"><path d="M145.494 163.806c-5.8 7.5-14.1 25.5-14.1 25.5l-8.8-47.4-20.4-4.2s-9.4 67.8 7.8 87.1c17.2 19.2 35.5-8.6 35.5-8.6v47.1h105.5l12.6-10.8 2.7 7.8s24.3-7.8 31.4-21.6c7.1-13.8 8.4-32.1 0-47.6-20.7-38.1-50.9-56.3-90.5-54.4-27.3 1.2-47.4 8.6-61.7 27.1Z" fill="#fff"/></mask><g mask="url(#g)"><path fill-rule="evenodd" clip-rule="evenodd" d="M250.994 195.806c0-1.7-1.4-3.1-3.1-3.1-1.7 0-3.1 1.4-3.1 3.1 0 1.7 1.4 3.1 3.1 3.1 1.7 0 3.1-1.4 3.1-3.1Z" fill="#000"/></g><mask id="h" style="mask-type:alpha" maskUnits="userSpaceOnUse" x="99" y="136" width="205" height="128"><path d="M145.494 163.806c-5.8 7.5-14.1 25.5-14.1 25.5l-8.8-47.4-20.4-4.2s-9.4 67.8 7.8 87.1c17.2 19.2 35.5-8.6 35.5-8.6v47.1h105.5l12.6-10.8 2.7 7.8s24.3-7.8 31.4-21.6c7.1-13.8 8.4-32.1 0-47.6-20.7-38.1-50.9-56.3-90.5-54.4-27.3 1.2-47.4 8.6-61.7 27.1Z" fill="#fff"/></mask><g mask="url(#h)"><path d="M105.694 114.906v22.8" stroke="#979797"/></g><path d="M233.371 122.143s3 .2 3.3 2.3c.3 2.1-2.2 6.3-4.3 8.1-2.1 1.8-3.4 2.1-3.4 2.1" fill="#fff"/><path d="M233.371 122.143s3 .2 3.3 2.3c.3 2.1-2.2 6.3-4.3 8.1-2.1 1.8-3.4 2.1-3.4 2.1" stroke="#000" stroke-width="1.5"/><path d="M175.27 116.843s-3-.3-3.6 1.8c-.6 2 1.2 6.5 3 8.6 1.8 2.1 3 2.6 3 2.6" fill="#fff"/><path d="M175.27 116.843s-3-.3-3.6 1.8c-.6 2 1.2 6.5 3 8.6 1.8 2.1 3 2.6 3 2.6" stroke="#000" stroke-width="1.5"/><path fill-rule="evenodd" clip-rule="evenodd" d="M234.07 112.243c0-21.8-14.8-31.2-30.3-31.2-15.6 0-28.2 11.4-28.2 33.2 0 21.8 12.6 39.5 28.2 39.5 15.6-.1 30.3-19.7 30.3-41.5Z" fill="#fff"/><path d="M234.07 112.243c0-21.8-14.8-31.2-30.3-31.2-15.6 0-28.2 11.4-28.2 33.2 0 21.8 12.6 39.5 28.2 39.5 15.6-.1 30.3-19.7 30.3-41.5Z" stroke="#000" stroke-width="1.5"/><path d="M209.57 133.644c-1.8-1.8-3.8-2.7-6.7 0M209.57 113.243s.3 3.8.7 6c.4 2.2.9 3 .9 4.2 0 1.2-2.6 1.7-2.6 1.7" stroke="#000" stroke-width="1.5"/><path fill-rule="evenodd" clip-rule="evenodd" d="M205.57 109.643c0-9.7-7.8-17.5-17.5-17.5s-17.5 7.8-17.5 17.5 7.8 17.5 17.5 17.5 17.5-7.8 17.5-17.5Z" fill="#fff"/><path d="M205.57 109.643c0-9.7-7.8-17.5-17.5-17.5s-17.5 7.8-17.5 17.5 7.8 17.5 17.5 17.5 17.5-7.8 17.5-17.5Z" stroke="#000" stroke-width="1.5"/><path fill-rule="evenodd" clip-rule="evenodd" d="M242.47 111.643c0-8.1-6.6-14.8-14.8-14.8-8.2 0-14.8 6.6-14.8 14.8 0 8.2 6.6 14.8 14.8 14.8 8.2 0 14.8-6.6 14.8-14.8Z" fill="#fff"/><path d="M242.47 111.643c0-8.1-6.6-14.8-14.8-14.8-8.2 0-14.8 6.6-14.8 14.8 0 8.2 6.6 14.8 14.8 14.8 8.2 0 14.8-6.6 14.8-14.8Z" stroke="#000" stroke-width="1.5"/><path fill-rule="evenodd" clip-rule="evenodd" d="M221.77 113.343c.2-1.9-.2-3.6-1.1-3.7-.8-.1-1.7 1.4-1.9 3.3-.2 1.9.2 3.6 1.1 3.7.8.1 1.6-1.3 1.9-3.3ZM198.57 111.843c.2-1.9-.2-3.6-1.1-3.7-.8-.1-1.7 1.4-1.9 3.3-.2 1.9.2 3.6 1.1 3.7.8.1 1.7-1.4 1.9-3.3Z" fill="#000"/><path fill-rule="evenodd" clip-rule="evenodd" d="M77.498 242.832h89c2.8 0 5-2.2 5-5v-21c0-2.8-2.2-5-5-5h-89c-2.8 0-5 2.2-5 5v21c0 2.8 2.2 5 5 5Z" fill="#fff"/><path d="M77.498 242.832h89c2.8 0 5-2.2 5-5v-21c0-2.8-2.2-5-5-5h-89c-2.8 0-5 2.2-5 5v21c0 2.8 2.2 5 5 5Z" stroke="#000" stroke-width="1.5" stroke-dasharray="4 4"/><path d="m77.098 214.832 88 23.8M77.098 238.632l88-23.8" stroke="#000" stroke-width="1.5"/><path fill-rule="evenodd" clip-rule="evenodd" d="M85.186 211.782c0-6.5-5.4-11.9-12-11.9s-11.9 5.4-11.9 11.9 5.3 11.9 11.9 11.9c6.6 0 12-5.3 12-11.9Z" fill="#EFEFEF"/><path d="M85.186 211.782c0-6.5-5.4-11.9-12-11.9s-11.9 5.4-11.9 11.9 5.3 11.9 11.9 11.9c6.6 0 12-5.3 12-11.9Z" stroke="#000" stroke-width="1.5"/><path d="m69.135 207.784 8.131 8.131M77.338 207.784l-8.132 8.131" stroke="#979797" stroke-width="1.5"/><path fill-rule="evenodd" clip-rule="evenodd" d="M69.42 111.28h89c2.8 0 5-2.2 5-5v-29c0-2.8-2.2-5-5-5h-89c-2.8 0-5 2.2-5 5v29c0 2.8 2.2 5 5 5Z" fill="#5578EC"/><path d="M69.42 111.28h89c2.8 0 5-2.2 5-5v-29c0-2.8-2.2-5-5-5h-89c-2.8 0-5 2.2-5 5v29c0 2.8 2.2 5 5 5Z" stroke="#3351E5" stroke-width="9"/><path d="M75.043 100.427h46M75.443 83.527h76.1" stroke="#fff" stroke-width="8"/><path fill-rule="evenodd" clip-rule="evenodd" d="M90.97 177.243h89.001c2.8 0 5-2.2 5-5v-21c0-2.8-2.2-5-5-5h-89c-2.8 0-5 2.2-5 5v21c0 2.8 2.2 5 5 5Z" fill="#fff"/><path d="M90.97 177.243h89.001c2.8 0 5-2.2 5-5v-21c0-2.8-2.2-5-5-5h-89c-2.8 0-5 2.2-5 5v21c0 2.8 2.2 5 5 5Z" stroke="#000" stroke-width="1.5" stroke-dasharray="4 4"/><path d="m91.07 149.843 88 23.2M91.07 173.043l86-23.2" stroke="#000" stroke-width="1.5"/><path fill-rule="evenodd" clip-rule="evenodd" d="M241.58 141.93h89c2.8 0 5-2.2 5-5v-21c0-2.8-2.2-5-5-5h-89c-2.8 0-5 2.2-5 5v21c0 2.8 2.2 5 5 5Z" fill="#fff"/><path d="M241.58 141.93h89c2.8 0 5-2.2 5-5v-21c0-2.8-2.2-5-5-5h-89c-2.8 0-5 2.2-5 5v21c0 2.8 2.2 5 5 5Z" stroke="#000" stroke-width="1.5" stroke-dasharray="4 4"/><path d="m243.48 114.229 85.6 23.5M243.48 137.729l85.6-23.5" stroke="#000" stroke-width="1.5"/><path fill-rule="evenodd" clip-rule="evenodd" d="M347.57 115.243c0-6.6-5.4-11.9-11.9-11.9-6.6 0-12 5.3-12 11.9 0 6.6 5.4 12 12 12 6.5-.1 11.9-5.4 11.9-12Z" fill="#EFEFEF"/><path d="M347.57 115.243c0-6.6-5.4-11.9-11.9-11.9-6.6 0-12 5.3-12 11.9 0 6.6 5.4 12 12 12 6.5-.1 11.9-5.4 11.9-12Z" stroke="#000" stroke-width="1.5"/><path fill-rule="evenodd" clip-rule="evenodd" d="M97.92 177.194c0-6.6-5.4-11.9-11.9-11.9s-12 5.3-12 11.9c0 6.6 5.3 12 11.9 12 6.6 0 12-5.4 12-12Z" fill="#EFEFEF"/><path d="M97.92 177.194c0-6.6-5.4-11.9-11.9-11.9s-12 5.3-12 11.9c0 6.6 5.3 12 11.9 12 6.6 0 12-5.4 12-12Z" stroke="#000" stroke-width="1.5"/><path d="m81.87 173.195 8.13 8.132M90.072 173.195l-8.132 8.132M331.869 111.195l8.132 8.132M340.072 111.195l-8.131 8.132" stroke="#979797" stroke-width="1.5"/><path d="M269.67 211.543c-.1 6.6-1.9 12-6.4 15.6l-6.9 4.2 6.9 22.4" fill="#fff"/><path d="M269.67 211.543c-.1 6.6-1.9 12-6.4 15.6l-6.9 4.2 6.9 22.4" stroke="#000" stroke-width="1.5"/><path d="M67.07 119.343c.2.9.6 1.8 1.3 2.4.7.7 1.5 1.1 2.4 1.3.9.2 1.9.1 2.7-.3.9-.4 1.6-1 2.1-1.7.5-.8.8-1.7.8-2.6 0-1.2-.5-2.4-1.4-3.3-.9-.9-2.1-1.4-3.3-1.4-.9 0-1.8.3-2.6.8s-1.4 1.3-1.7 2.1c-.4.9-.5 1.8-.3 2.7ZM120.771 62.243l7.5-3.6M124.57 54.343l7.5-3.6" stroke="#5578EC" stroke-width="1.944"/><path d="m207.37 102.643-9.3-3.4M213.07 102.943l9.1-2.1" stroke="#000" stroke-width="1.5"/></svg>