<svg viewBox="0 0 400 300" fill="none" xmlns="http://www.w3.org/2000/svg"><path fill-rule="evenodd" clip-rule="evenodd" d="M277.3 90c0-2-.4-3.9-1.1-5.7-.7-1.8-1.8-3.5-3.2-4.9-1.4-1.4-4.8-3.3-4.8-3.3-1.8-.8-3.7-1.1-5.7-1.2H84.9c-2 0-3.9.4-5.7 1.1 0 0-3.5 1.9-4.8 3.2-1.4 1.4-2.5 3-3.2 4.9-.8 2-1.2 4-1.2 5.9v119.9c0 2 .4 3.9 1.1 5.7.8 1.8 1.9 3.5 3.2 4.9 1.4 1.4 4.8 3.2 4.8 3.2 1.8.8 3.8 1.1 5.7 1.1h177.4c4 .1 7.8-1.5 10.6-4.3s4.4-6.6 4.4-10.6V90h.1Z" fill="#D8D8D8"/><path fill-rule="evenodd" clip-rule="evenodd" d="M71.4 98.5c-.9.9-1.4 2.1-1.4 3.3v118.4c0 1.2.5 2.4 1.4 3.3.9.9 3.3 1.4 3.3 1.4h198s2.4-.5 3.3-1.4c.9-.9 1.4-2 1.4-3.3V101.8c0-1.2-.5-2.4-1.4-3.3-.9-.9-3.3-1.3-3.3-1.3h-198s-2.5.4-3.3 1.3Z" fill="#EFEFEF"/><path fill-rule="evenodd" clip-rule="evenodd" d="M82.6 83.3c-.6.4-1 .9-1.3 1.5-.3.6-.4 1.3-.2 2 .1.7.4 1.3.9 1.8s1.1.8 1.7.9c.7.1 1.4.1 2-.2.6-.3 1.2-.7 1.5-1.3.4-.6.6-1.2.6-1.9h.1c0-.9-.4-1.8-1-2.4-.6-.6-1.5-1-2.4-1-.6 0-1.3.2-1.9.6Z" fill="#B5B5B6"/><path fill-rule="evenodd" clip-rule="evenodd" d="M85.2 126.5h80.2c1.1 0 2.2-.4 2.9-1.2.8-.8 1.2-1.8 1.2-2.9 0-1.1-.4-2.1-1.2-2.9-.8-.8-1.8-1.2-2.9-1.2H85.2c-2.3 0-4.1 1.8-4.1 4.1 0 2.2 1.8 4.1 4.1 4.1ZM85.2 146h80.2c1.1 0 2.2-.4 2.9-1.2.8-.8 1.2-1.8 1.2-2.9 0-1.1-.4-2.1-1.2-2.9-.8-.8-1.8-1.2-2.9-1.2H85.2c-2.3 0-4.1 1.8-4.1 4.1 0 2.2 1.8 4.1 4.1 4.1ZM85.2 165.5h80.2c1.1 0 2.2-.4 2.9-1.2.8-.8 1.2-1.8 1.2-2.9 0-1.1-.4-2.1-1.2-2.9-.8-.8-1.8-1.2-2.9-1.2H85.2c-2.3 0-4.1 1.8-4.1 4.1 0 2.2 1.8 4.1 4.1 4.1Z" fill="#D8D8D8"/><path fill-rule="evenodd" clip-rule="evenodd" d="M94 86.8c.1.6.5 1.3.9 1.7.5.5 1.1.8 1.7.9.7.1 1.3.1 2-.2.6-.3 1.1-.7 1.5-1.3.4-.6.6-1.2.6-1.9 0-.9-.4-1.8-1-2.4-.6-.6-1.5-1-2.4-1-.7 0-1.3.2-1.9.6-.6.4-1 .9-1.2 1.5-.3.8-.4 1.5-.2 2.1ZM109.5 89.5c.7.1 1.3.1 2-.2.7-.3 1.1-.7 1.5-1.3.4-.6.6-1.2.6-1.9 0-.9-.4-1.8-1-2.4-.6-.6-1.5-1-2.4-1-.7 0-1.3.2-1.9.6-.6.4-1 .9-1.2 1.5-.3.6-.3 1.3-.2 2 .1.6.5 1.3.9 1.7.4.5 1 .8 1.7 1Z" fill="#B5B5B6"/><path fill-rule="evenodd" clip-rule="evenodd" d="M216.298 123.699c0-1.5-1.2-2.8-2.8-2.8-1.5 0-2.8 1.2-2.8 2.8 0 1.5 1.2 2.8 2.8 2.8 1.6 0 2.8-1.3 2.8-2.8Z" fill="#D8D8D8"/><path d="M216.298 123.699c0-1.5-1.2-2.8-2.8-2.8-1.5 0-2.8 1.2-2.8 2.8 0 1.5 1.2 2.8 2.8 2.8 1.6 0 2.8-1.3 2.8-2.8Z" stroke="#979797"/><path fill-rule="evenodd" clip-rule="evenodd" d="m286.998 182.899-1.3-13s-3.2-23.7-16.6-34.7c-21.9-16.2-55.8-24.6-55.8-24.6l-30.5 3.3s-57.4 6.5-60.8 35.6c-1.6 14-13.5 24.2-20.6 33.5-2.7 3.6-9.9 15.9-9.9 15.9h8.2l187.3-16Z" fill="#fff"/><path d="m286.998 182.899-1.3-13s-3.2-23.7-16.6-34.7c-21.9-16.2-55.8-24.6-55.8-24.6l-30.5 3.3s-57.4 6.5-60.8 35.6c-1.6 14-13.5 24.2-20.6 33.5-2.7 3.6-9.9 15.9-9.9 15.9h8.2l187.3-16Z" stroke="#000" stroke-width="1.5"/><path fill-rule="evenodd" clip-rule="evenodd" d="m188.698 144.599-6-30.7-14 5 20 34.1 34.8-30.6-10.2-11.9-24.6 34.1Z" fill="#EFEFEF"/><path d="m188.698 144.599-6-30.7-14 5 20 34.1 34.8-30.6-10.2-11.9-24.6 34.1Z" stroke="#000" stroke-width="1.5"/><path d="M184.299 103.099s-1.4 7.5-1.4 12.1c0 4.5 5.8 29.4 5.8 29.4l24.6-34v-21.2s6.5 3.9 9.2 3.7c8.9-.6 13-7.9 11.8-15.3-2.3-14.5-16.7-9.3-16.7-9.3v-22.4l-34.6-7.9s-16.1 2.8-17.7 7.9c-1.7 5.1-3.7 34.2 3.6 43.3 9.5 15.3 30.4 8.9 30.4 8.9" fill="#fff"/><path d="M184.299 103.099s-1.4 7.5-1.4 12.1c0 4.5 5.8 29.4 5.8 29.4l24.6-34v-21.2s6.5 3.9 9.2 3.7c8.9-.6 13-7.9 11.8-15.3-2.3-14.5-16.7-9.3-16.7-9.3v-22.4l-34.6-7.9s-16.1 2.8-17.7 7.9c-1.7 5.1-3.7 34.2 3.6 43.3 9.5 15.3 30.4 8.9 30.4 8.9" stroke="#000" stroke-width="1.5"/><path fill-rule="evenodd" clip-rule="evenodd" d="m171.299 104.899 4.6-1.9v-4.6l1.4 3.6 4.6-1.4s-11.5-6.9-14.6-13.1c-3.1-6.2-3.7-24-3.7-24l3.7-14s7.3-.6 10.7-1.9c3.4-1.3 6.7-4.8 6.7-4.8s4.9 3.3 7.4 4c2.5.7 7.3.1 7.3.1 1.8 5.8 5.4 10.1 13 11.1l.8 14.7s6.7-3.6 10.7-1.1c4 2.5 5.2 7.5 3.5 12.6-.4 1.1-1.9 2.5-4.8 3.3-2.9.8-10.9-.5-10.9-.5l1.4 13.6 15.2 2.3 2.3-6.2v6.6l3.8.6s6.4-31.4-3.8-54.4c-10.1-23.1-38.8-15-38.8-15s-23-7.8-32.8 14.9c-7.9 15.4 4.7 58.6 4.7 58.6l4.7-2 2.9-1.1Z" fill="#000"/><path d="m181.598 65.1-4.2 10 5.4 2.7M191.799 63.399l9.4-3.5M175.999 63.399l-6.4-3.5M168.799 66.499c2.5 1.3 5.7 2.1 7.2 0M190.698 67.899c2.5 1.3 5.7 2.1 7.2 0M178.898 89.699s2.5-2.3 6.1-2.3c2.1 0 5.7 2.3 5.7 2.3" stroke="#000" stroke-width="1.5"/><path fill-rule="evenodd" clip-rule="evenodd" d="M114.398 268.499h161c3.9 0 7-3.1 7-7v-101.5c0-3.9-3.1-7-7-7h-161c-3.9 0-7 3.1-7 7v101.5c0 3.9 3.1 7 7 7Z" fill="#fff"/><path d="M114.398 268.499h161c3.9 0 7-3.1 7-7v-101.5c0-3.9-3.1-7-7-7h-161c-3.9 0-7 3.1-7 7v101.5c0 3.9 3.1 7 7 7Z" stroke="#000" stroke-width="1.5"/><path fill-rule="evenodd" clip-rule="evenodd" d="M118.998 258.699h151.8v-96h-151.8v96Z" fill="#EFEFEF"/><path d="M118.998 258.699h151.8v-96h-151.8v96Z" stroke="#000" stroke-width="1.5"/><path fill-rule="evenodd" clip-rule="evenodd" d="m113.998 220.799 21.3-3.1s1.9-.5 1.9-2.7c0-2.3-1.9-2.4-1.9-2.4l-21.3 1.2 23.3-4.5s1.6-1.4 1.2-3.8c-.4-2.5-4.1-2-4.1-2l-21.4 2 22.3-3.8s1.7-.3 1.9-2.3c.1-1.9-1.9-2.5-1.9-2.5h-27.9v-8.1s-19.5 6.4-19.5 19.9c0 13.4 12.8 17.5 21.5 17.5 8.8 0 19.9-.6 22.1-2.2 2.2-1.6.7-3.9.7-3.9l-18.2.7Z" fill="#fff"/><path d="m113.998 220.799 21.3-3.1s1.9-.5 1.9-2.7c0-2.3-1.9-2.4-1.9-2.4l-21.3 1.2 23.3-4.5s1.6-1.4 1.2-3.8c-.4-2.5-4.1-2-4.1-2l-21.4 2 22.3-3.8s1.7-.3 1.9-2.3c.1-1.9-1.9-2.5-1.9-2.5h-27.9v-8.1s-19.5 6.4-19.5 19.9c0 13.4 12.8 17.5 21.5 17.5 8.8 0 19.9-.6 22.1-2.2 2.2-1.6.7-3.9.7-3.9l-18.2.7Z" stroke="#000" stroke-width="1.5"/><path fill-rule="evenodd" clip-rule="evenodd" d="M268.398 189.399c-3.1 1-.8 12.2-.8 12.2s5.1 21.8 18.6 22.5c13.4.7 18.1-11.8 18.6-20.6s.5-19.9-1-22.2c-1.5-2.3-3.9-.9-3.9-.9l-.1 18.3-2-21.5s-.4-1.9-2.6-2c-2.3-.1-2.5 1.7-2.5 1.7l.1 21.4-3.3-23.5s-1.3-1.6-3.8-1.4c-2.5.3-2.2 4-2.2 4l.9 21.5-2.7-22.4s-.2-1.7-2.2-2c-1.9-.2-2.6 1.7-2.6 1.7l-1.6 26c-.1 0-3.8-13.7-6.9-12.8Z" fill="#fff"/><path d="M268.398 189.399c-3.1 1-.8 12.2-.8 12.2s5.1 21.8 18.6 22.5c13.4.7 18.1-11.8 18.6-20.6s.5-19.9-1-22.2c-1.5-2.3-3.9-.9-3.9-.9l-.1 18.3-2-21.5s-.4-1.9-2.6-2c-2.3-.1-2.5 1.7-2.5 1.7l.1 21.4-3.3-23.5s-1.3-1.6-3.8-1.4c-2.5.3-2.2 4-2.2 4l.9 21.5-2.7-22.4s-.2-1.7-2.2-2c-1.9-.2-2.6 1.7-2.6 1.7l-1.6 26c-.1 0-3.8-13.7-6.9-12.8Z" stroke="#000" stroke-width="1.5"/><path fill-rule="evenodd" clip-rule="evenodd" d="M151.256 162.383v51.9s2 8.9 10.4 17.2c6.5 6.4 21.9 14.5 28.7 18.1 1.1.6 2 1 2 1l2 1c.5.3 1.5.3 2 0l2-1c4-1.9 22.3-11.7 29.7-19.1 8.4-8.3 10.4-17.2 10.4-17.2v-51.9c0-1.6-1-3.1-2.6-3.5l-41-13.1-41 13.1c-1.6.4-2.6 1.9-2.6 3.5Z" fill="#5578EC"/><path d="M151.256 162.383v51.9s2 8.9 10.4 17.2c6.5 6.4 21.9 14.5 28.7 18.1 1.1.6 2 1 2 1l2 1c.5.3 1.5.3 2 0l2-1c4-1.9 22.3-11.7 29.7-19.1 8.4-8.3 10.4-17.2 10.4-17.2v-51.9c0-1.6-1-3.1-2.6-3.5l-41-13.1-41 13.1c-1.6.4-2.6 1.9-2.6 3.5Z" stroke="#3351E5" stroke-width="9"/><path fill-rule="evenodd" clip-rule="evenodd" d="M188.556 197.583c.7.3 1.4.6 2.2.8v24.3c0 2.2 1.8 3.9 3.9 3.9 2.2 0 3.9-1.8 3.9-3.9v-9.3h6.7c2.2 0 3.9-1.8 3.9-4.1 0-2.2-1.8-3.9-3.9-3.9h-6.6v-6.9c5.8-1.6 10-7.2 10.2-13.2v-.5c-.1-2.7-.9-5.5-2.4-7.7-1.8-2.5-4.2-4.3-7.1-5.4-5.3-1.9-11.7-.1-15.2 4.1-2 2.5-3.2 5.2-3.4 8.4-.2 2.8.5 5.7 2 8.1 1.3 2.2 3.4 4.2 5.8 5.3Z" fill="#fff"/><path fill-rule="evenodd" clip-rule="evenodd" d="M189.255 187.283c.2.3.3.6.5.9.1 0 .1.2.3.4.1.2.3.3.5.5l.6.6.1.1c.3.2.7.4 1.1.6.5.2 1 .3 1.5.4h1.6c.5-.1 1-.2 1.5-.4.3-.2.6-.3.9-.5 0 0 .2-.1.4-.3.2-.1.3-.3.5-.5l.6-.6.1-.1c.2-.4.5-.7.6-1.1.2-.5.3-1 .4-1.5v-1.6c-.1-.5-.2-1-.4-1.5-.2-.3-.3-.6-.5-.9 0 0-.1-.2-.3-.4-.1-.2-.3-.3-.5-.5l-.6-.6-.1-.1c-.4-.2-.7-.5-1.1-.6-.5-.2-1-.3-1.5-.4h-1.6c-.5.1-1 .2-1.5.4-.3.2-.6.3-.9.5 0 0-.2.1-.4.3l-.5.5-.6.6-.1.1c-.2.4-.5.7-.6 1.1-.2.5-.3 1-.4 1.5v1.6c.1.5.2 1 .4 1.5Z" fill="#5578EC"/><path d="M216.299 74.499s6.1-.8 6.9 2.4c.8 3.1-1 5.2-1 5.2M208.998 118.199l7.3 8.3M121.4 261l-3.4 4.6M125.8 261l-3.4 4.6M131.8 261l-3.4 4.6M135.2 261l-3.4 4.6" stroke="#000" stroke-width="1.5"/><path fill-rule="evenodd" clip-rule="evenodd" d="M256.4 102.6c0-1.9-1.6-3.5-3.5-3.5s-3.5 1.6-3.5 3.5 1.6 3.5 3.5 3.5 3.5-1.6 3.5-3.5Z" fill="#fff"/><path d="M256.4 102.6c0-1.9-1.6-3.5-3.5-3.5s-3.5 1.6-3.5 3.5 1.6 3.5 3.5 3.5 3.5-1.6 3.5-3.5Z" stroke="#DCDDDD"/><path fill-rule="evenodd" clip-rule="evenodd" d="M276.5 94.7c0-4.1-3.4-7.5-7.5-7.5s-7.5 3.4-7.5 7.5 3.4 7.5 7.5 7.5 7.5-3.3 7.5-7.5Z" fill="#fff"/><path d="M276.5 94.7c0-4.1-3.4-7.5-7.5-7.5s-7.5 3.4-7.5 7.5 3.4 7.5 7.5 7.5 7.5-3.3 7.5-7.5Z" stroke="#DCDDDD"/><path fill-rule="evenodd" clip-rule="evenodd" d="M294 97.4h13c4.4 0 8.6-1.7 11.7-4.8 3.1-3.1 4.8-7.3 4.8-11.7 0-4.4-1.7-8.6-4.8-11.7-3.1-3.1-7.3-4.8-11.7-4.8h-13c-4.4 0-8.6 1.7-11.7 4.8-3.1 3.1-4.8 7.3-4.8 11.7 0 4.4 1.7 8.6 4.8 11.7 3.1 3.1 7.3 4.8 11.7 4.8Z" fill="#fff"/><path d="M294 97.4h13c4.4 0 8.6-1.7 11.7-4.8 3.1-3.1 4.8-7.3 4.8-11.7 0-4.4-1.7-8.6-4.8-11.7-3.1-3.1-7.3-4.8-11.7-4.8h-13c-4.4 0-8.6 1.7-11.7 4.8-3.1 3.1-4.8 7.3-4.8 11.7 0 4.4 1.7 8.6 4.8 11.7 3.1 3.1 7.3 4.8 11.7 4.8Z" stroke="#DCDDDD"/><path fill-rule="evenodd" clip-rule="evenodd" d="m291.125 83.819 1.6 1.6-1.1 1.1-1.6-1.6c-.1-.1-.2-.1-.3 0l-1 1c-.1.1-.1.2 0 .3l1.6 1.6-1.6 1.6v.3l1.1 1.1h.3l6.3-6.3c1.3 1 2.9 1.6 4.7 1.6 4.2 0 7.6-3.4 7.6-7.6 0-4.2-3.5-7.7-7.7-7.7s-7.6 3.4-7.6 7.6c0 1.8.6 3.4 1.6 4.7l-1 1-1.5-1.6c-.1-.1-.2-.1-.3 0l-1 1c-.1.1-.1.2-.1.3Zm15.6-5.4c0-1.5-.6-3-1.7-4-1.1-1.1-2.5-1.7-4-1.7s-3 .6-4 1.7c-1.1 1.1-1.7 2.5-1.7 4s.6 3 1.7 4c1.1 1.1 2.5 1.7 4 1.7s3-.6 4-1.7 1.7-2.5 1.7-4Z" fill="#000"/><path d="m308.6 88.1 1.9 2.4 3.8-4.2" stroke="#000" stroke-width="1.5"/><path d="M174.6 252.3c1.1.6 2.4.8 3.6.5.9-.2 1.7-.7 2.3-1.4.6-.7 1-1.6 1.1-2.5.1-.9 0-1.9-.4-2.7-.4-.8-1.1-1.5-1.9-2-.8-.5-1.7-.7-2.7-.6-.9.1-1.8.4-2.6 1-.7.6-1.3 1.4-1.6 2.2-.3.9-.3 1.8-.1 2.7.5 1.2 1.2 2.2 2.3 2.8ZM248.5 175.2l-6.3 5.4M256.7 172.5l-6.3 5.4" stroke="#5578EC" stroke-width="1.944"/></svg>