<svg viewBox="0 0 400 300" fill="none" xmlns="http://www.w3.org/2000/svg"><path fill-rule="evenodd" clip-rule="evenodd" d="M219.034 49.712c59.9 0 108.4 48.6 108.4 108.4 0 59.9-48.6 108.4-108.4 108.4-9.3 0-18.3-1.2-26.9-3.4 10.8-11.6 17.5-27.2 17.5-44.3 0-35.9-29.1-65-65-65-12.4 0-24 3.5-33.8 9.5-.1-1.7-.1-3.5-.1-5.2-.1-59.8 48.4-108.4 108.3-108.4Z" fill="#EFEFEF"/><path d="M223.633 70.712s1.7-2.5 2.4-1.4c.8 3.2-3.3 6.1-3.3 6.1" fill="#fff"/><path d="M223.633 70.712s1.7-2.5 2.4-1.4c.8 3.2-3.3 6.1-3.3 6.1" stroke="#000" stroke-width="1.5"/><path d="M193.633 70.112s-1.3-1.9-2-.8c-.8 3.2 3.3 6.1 3.3 6.1" fill="#fff"/><path d="M193.633 70.112s-1.3-1.9-2-.8c-.8 3.2 3.3 6.1 3.3 6.1" stroke="#000" stroke-width="1.5"/><path fill-rule="evenodd" clip-rule="evenodd" d="M280.733 69.612c0-6.4-5.2-11.6-11.6-11.6-6.4 0-11.6 5.2-11.6 11.6 0 6.4 5.2 11.6 11.6 11.6 6.4.1 11.6-5.2 11.6-11.6ZM161.333 212.112c0-15.2-12.3-27.5-27.5-27.5s-27.5 12.3-27.5 27.5 12.3 27.5 27.5 27.5 27.5-12.4 27.5-27.5ZM303.233 221.412c0-3.9-3.1-7-7-7s-7 3.1-7 7 3.1 7 7 7 7-3.1 7-7Z" fill="#DCDDDD"/><path fill-rule="evenodd" clip-rule="evenodd" d="M192.233 218.912c-2.9 0-14.9-4.6-14.9-4.6l-14.2 60.8 32 2.1 13.1-58.2c0-.1-13.1-.1-16-.1Z" fill="#fff"/><path fill-rule="evenodd" clip-rule="evenodd" d="m198.934 217.212 1.3 29.5 1.8 30.8 31.9.9 3.8-60.5-38.8-.7ZM304.934 132.612s12.4-6 16.2-11.8c2.3-3.4 4.8-10.7 4.6-14.6-.1-1.7-1.9-1.9-2.6-2.4-.5-.4-1-.1-2.1 0-1 .1-2-.4-3.1.5-1.4 1.4-3.4 7-3.4 7s-.2-8.2-2.3-7c-2.1 1.1-2 7-2.2 9.4-.2 2.4 0 4.4 0 4.4l-4.6 3.4-.5 11.1Z" fill="#fff"/><path d="M304.934 132.612s12.4-6 16.2-11.8c2.3-3.4 4.8-10.7 4.6-14.6-.1-1.7-1.9-1.9-2.6-2.4-.5-.4-1-.1-2.1 0-1 .1-2-.4-3.1.5-1.4 1.4-3.4 7-3.4 7s-.2-8.2-2.3-7c-2.1 1.1-2 7-2.2 9.4-.2 2.4 0 4.4 0 4.4l-4.6 3.4-.5 11.1Z" stroke="#000" stroke-width="1.5"/><path fill-rule="evenodd" clip-rule="evenodd" d="M177.333 209.812c-7.5 33.9-12.2 55.7-14.2 65.2l14.2-65.2Zm17.8 67.3c1.6-7.6 5-21.8 10.1-42.6l-10.1 42.6Z" fill="#fff"/><path d="M177.333 209.812c-7.5 33.9-12.2 55.7-14.2 65.2m32 2.1c1.6-7.6 5-21.8 10.1-42.6" stroke="#000" stroke-width="1.5"/><path fill-rule="evenodd" clip-rule="evenodd" d="M201.133 250.312c.2 13.1.4 22.2.7 27.3l-.7-27.3Zm32.8 28.2c.6-9.9 2.2-32.8 5-68.6l-5 68.6Z" fill="#fff"/><path d="M201.133 250.312c.2 13.1.4 22.2.7 27.3m32.1.9c.6-9.9 2.2-32.8 5-68.6" stroke="#000" stroke-width="1.5"/><path fill-rule="evenodd" clip-rule="evenodd" d="M172.733 212.712s17.1 6.2 33.2 6.2 35.9-1.9 35.9-1.9v-71.1l-64.6-7.9-4.5 74.7Z" fill="#fff"/><path d="M172.733 212.712s17.1 6.2 33.2 6.2 35.9-1.9 35.9-1.9v-71.1l-64.6-7.9-4.5 74.7Z" stroke="#000" stroke-width="1.5"/><path fill-rule="evenodd" clip-rule="evenodd" d="m192.233 193.812-.6 3.9s9.6 6.2 15.8 7.3c2.8.5 9.2 1 11 0 1.9-1 1.2-2.8 2.5-3.6 1.5-1 1.5-2.8 1.6-3.8.4-2.9-8-4.1-8-4.1s4.8-3 2.7-4.2c-2-1.2-6.8-.5-9.9 1.2-3.1 1.7-11.4 1.7-11.4 1.7l1.4-.6-5.1 2.2Z" fill="#fff"/><path d="m192.233 193.812-.6 3.9s9.6 6.2 15.8 7.3c2.8.5 9.2 1 11 0 1.9-1 1.2-2.8 2.5-3.6 1.5-1 1.5-2.8 1.6-3.8.4-2.9-8-4.1-8-4.1s4.8-3 2.7-4.2c-2-1.2-6.8-.5-9.9 1.2-3.1 1.7-11.4 1.7-11.4 1.7l1.4-.6-5.1 2.2Z" stroke="#000" stroke-width="1.5"/><path fill-rule="evenodd" clip-rule="evenodd" d="m152.133 182.012 37.6 18.3c1.9.9 4.1.2 5.2-1.5l4.1-6.7c.6-.9.7-2.1.4-3.1-.3-1.1-1-1.9-1.9-2.5l-38-21.1 13.2-24.5-19.1-10.2-11.2 18.8c-3.3 5.5-4.1 12.2-2.3 18.4a23.6 23.6 0 0 0 12 14.1Z" fill="#fff"/><path d="m152.133 182.012 37.6 18.3c1.9.9 4.1.2 5.2-1.5l4.1-6.7c.6-.9.7-2.1.4-3.1-.3-1.1-1-1.9-1.9-2.5l-38-21.1 13.2-24.5-19.1-10.2-11.2 18.8c-3.3 5.5-4.1 12.2-2.3 18.4a23.6 23.6 0 0 0 12 14.1Z" stroke="#000" stroke-width="1.5"/><path fill-rule="evenodd" clip-rule="evenodd" d="M262.233 178.112c9.4 0 45.7-44.2 45.7-44.2v-16.3l-41.2 38.2-4.5-7.9-11.9 12.8c0-.1 2.5 17.4 11.9 17.4Z" fill="#fff"/><path d="M262.233 178.112c9.4 0 45.7-44.2 45.7-44.2v-16.3l-41.2 38.2-4.5-7.9-11.9 12.8c0-.1 2.5 17.4 11.9 17.4Z" stroke="#000" stroke-width="1.5"/><path d="m239.433 153.012 6.3 9c.6.9 1.6 1.5 2.7 1.7 1.1.2 2.2-.1 3-.8l16-12.2c.8-.6 1.1-1.7.8-2.7-2.4-6.9-12.2-33.8-17.9-40.9-6.6-8.1-24.7-10.6-24.7-10.6s-37.3 0-48.1 4.6c-10.8 4.6-27.2 27.5-27.2 27.5l14.6 29.6 14.5-14.8" fill="#fff"/><path d="m239.433 153.012 6.3 9c.6.9 1.6 1.5 2.7 1.7 1.1.2 2.2-.1 3-.8l16-12.2c.8-.6 1.1-1.7.8-2.7-2.4-6.9-12.2-33.8-17.9-40.9-6.6-8.1-24.7-10.6-24.7-10.6s-37.3 0-48.1 4.6c-10.8 4.6-27.2 27.5-27.2 27.5l14.6 29.6 14.5-14.8" stroke="#000" stroke-width="1.5"/><path fill-rule="evenodd" clip-rule="evenodd" d="M199.233 94.012c-2.5 2.4-7.6 5-7.6 5s4.9 3.8 15.7 3.8c10.8 0 17.6-5.2 17.6-5.2s-3.3-4.2-4.4-8.6c-1.1-4.4-1.4-15.6-1.4-15.6l-17.5 10.3c0 .1.2 7.9-2.4 10.3Z" fill="#fff"/><path d="M199.233 94.012c-2.5 2.4-7.6 5-7.6 5s4.9 3.8 15.7 3.8c10.8 0 17.6-5.2 17.6-5.2s-3.3-4.2-4.4-8.6c-1.1-4.4-1.4-15.6-1.4-15.6l-17.5 10.3c0 .1.2 7.9-2.4 10.3Z" stroke="#000" stroke-width="1.5"/><path fill-rule="evenodd" clip-rule="evenodd" d="M206.433 66.612c0-1-.8-1.9-1.9-1.9-1 0-1.9.9-1.9 1.9 0 1.1.9 1.9 1.9 1.9 1.1 0 1.9-.8 1.9-1.9ZM217.033 66.612c0-1-.8-1.9-1.9-1.9-1 0-1.9.9-1.9 1.9 0 1.1.9 1.9 1.9 1.9 1.1 0 1.9-.8 1.9-1.9Z" fill="#D8D8D8"/><path d="M210.633 67.312s-1.1 3 0 4.6c1.1 1.6 2.7 2.4 2.7 2.4l-3.7.7M206.434 79.912s2.7-2.7 4.3-2.7c1.7 0 3.4.8 3.4.8" stroke="#979797"/><path fill-rule="evenodd" clip-rule="evenodd" d="M194.833 74.212c4.7 13.9 8.6 13.9 16.1 13.9 7.4 0 12.1-9.6 12.9-13.9.8-4.4 2.9-20.1-.4-25-3.3-4.9-26-2.4-26-2.4s-7.3 13.5-2.6 27.4Z" fill="#fff"/><path d="M194.833 74.212c4.7 13.9 8.6 13.9 16.1 13.9 7.4 0 12.1-9.6 12.9-13.9.8-4.4 2.9-20.1-.4-25-3.3-4.9-26-2.4-26-2.4s-7.3 13.5-2.6 27.4ZM257.533 225.812c6.4-5.6 10.1-12.8 11-21.8-1.3-47.2 22-84.3 41-94.2m5.1-.9c16.1-.7 22.7 58.2 22.5 177M180.733 197.812c-21.4 5.4-46 17.2-57.2 43.1-13.7 31.8-37.9 47.7-72.5 47.7M214.533 193.612s7 3.6 7 13.3c0 9.7 2.9 15.2 2.9 15.2" stroke="#000" stroke-width="1.5"/><path fill-rule="evenodd" clip-rule="evenodd" d="M204.433 67.912c0-1.2-1-2.2-2.2-2.2-1.2 0-2.2 1-2.2 2.2 0 1.2 1 2.2 2.2 2.2 1.2 0 2.2-1 2.2-2.2ZM217.033 67.612c0-1.2-1-2.2-2.2-2.2-1.2 0-2.2 1-2.2 2.2 0 1.2 1 2.2 2.2 2.2 1.2 0 2.2-1 2.2-2.2Z" fill="#000"/><path d="m208.933 70.312-.4 1c-.5 1-.4 2.1.2 3 .6.9 1.6 1.5 2.7 1.5M206.533 81.312l6.8-2.8v1.5l1.9-.1" stroke="#000" stroke-width="1.5"/><path fill-rule="evenodd" clip-rule="evenodd" d="M197.533 62.412s.3-9.8 11.4-9.8c11.2 0 12.3 12.1 12.3 12.1h5s6.2-21.8-1.7-27.3-17.2 0-17.2 0-.4-3.2-9.8 0-4.3 25-4.3 25h4.3ZM222.233 77.212s-2.7 7-7.1 8.3c-4.3 1.3-5.6-2.1-5.6-2.1s-.6 3.2-5.1 2.1-7.3-6.9-7.3-6.9 2.4 9.6 12.1 9.6 13-11 13-11Z" fill="#000"/><path fill-rule="evenodd" clip-rule="evenodd" d="m78.541 143.143 93.184 13.096 8.351-59.416-93.184-13.096-8.35 59.416Z" fill="#5578EC"/><path d="m78.541 143.143 93.184 13.096 8.351-59.416-93.184-13.096-8.35 59.416Z" stroke="#3351E5" stroke-width="9"/><path fill-rule="evenodd" clip-rule="evenodd" d="m129.12 109.45 2.971-8.602c12.518 1.436 24.439 7.736 32.81 18.335l-7.021 5.485c-7.227-9.249-17.769-14.473-28.76-15.218Zm9.486 21.214 1.697-.698-7.602-11.11c6.974 1.461 13.469 5.18 18.17 11.198l-7.02 5.486a19.527 19.527 0 0 0-5.245-4.876Zm-8.128 15.324-1.2-9.921c2.941.664 5.673 2.208 7.675 4.772l-6.475 5.149ZM119.333 103.58c-7.642 1.473-14.957 5.207-21.194 11.093l-6.445-7.628C101.11 98.18 112.64 93.401 124.32 92.7l-4.986 10.88Zm3.564 30.357 6.711 12.048-2.76 2.573-9.611-11.271c1.774-1.596 3.637-2.753 5.66-3.35Zm-2.23-20.268 8.717 9.583c-6.467-.594-13.124 1.453-18.399 6.458l-6.374-7.505c4.637-4.555 10.238-7.299 16.056-8.536Z" fill="#fff"/><path d="M226.633 225.812v4.2M229.533 225.812l4.4 1.1M253.933 225.812l-3.6-1.6M256.433 227.912l-2.4 2.1" stroke="#000" stroke-width="1.5"/><path d="M86.733 164.612c1.1.6 2.4.8 3.6.5.9-.2 1.7-.7 2.3-1.4.6-.7 1-1.6 1.1-2.5.1-.9 0-1.9-.4-2.7-.4-.8-1.1-1.5-1.9-2-.8-.5-1.7-.7-2.7-.6-.9.1-1.8.4-2.6 1s-1.3 1.4-1.6 2.2c-.3.9-.3 1.8-.1 2.7.4 1.2 1.2 2.2 2.3 2.8ZM148.833 78.612l-6.3 5.4M157.033 75.812l-6.3 5.4" stroke="#5578EC" stroke-width="1.944"/><path d="M212.434 198.612s2.9 1.1 5.9.9c3-.3 3.9-1.1 3.9-1.1M208.233 201.912s3.1.9 6.8.9c3.6 0 5.8-1.3 5.8-1.3M320.734 103.812s0 1.8-.6 3.6-1.7 3.6-1.7 3.6M323.934 104.512s-.4 2.7-.9 4.3c-.5 1.6-1.6 3.3-1.6 3.3" stroke="#000" stroke-width="1.5"/></svg>