<?xml version="1.0" standalone="no"?><!DOCTYPE svg PUBLIC "-//W3C//DTD SVG 1.1//EN" "http://www.w3.org/Graphics/SVG/1.1/DTD/svg11.dtd"><svg t="1720354124545" class="icon" viewBox="0 0 1024 1024" version="1.1" xmlns="http://www.w3.org/2000/svg" p-id="11951" xmlns:xlink="http://www.w3.org/1999/xlink" width="200" height="200"><path d="M16.41116907 542.83866058V512.59617862C16.41116907 240.41384385 238.1893677 18.63564528 510.37170217 18.63564528S1004.33223623 240.41384385 1004.33223623 512.59617862s-221.77819907 493.96053409-493.96053406 493.96053385H490.21004783c-60.48496315-2.52020746-108.36889306-45.36372276-120.96992681-100.80827211-22.68186147-128.53054737-123.49013425-229.33881957-254.54088735-252.0206805-52.92434316-12.60103446-95.7678587-57.96475687-98.28806542-115.92951316v-7.56061982" fill="#FE163E" p-id="11952"></path><path d="M475.08880728 699.09148247c88.20723845-20.16165438 166.33364933-68.04558386 226.81861249-131.05075417 30.2424816-30.2424816 30.2424816-83.16682479 0-113.40930591-60.48496315-63.00517055-138.61137466-108.36889306-226.81861249-131.05075439-42.84351573-10.08082706-85.68703167 15.12124106-98.28806523 55.44454993s-17.64144821 85.68703167-17.64144774 131.05075376c0 45.36372276 7.56062073 88.20723845 17.64144774 131.05075366 12.60103446 42.84351573 55.44454944 68.04558386 98.28806523 57.96475712z" fill="#FFFFFF" p-id="11953"></path></svg>